<svg xmlns="http://www.w3.org/2000/svg">

    <symbol id="logo" viewBox="0 0 836 859.07">
        <title>RM_logo_final</title>
        <polygon points="0.57 858.5 66.47 375.25 201.35 257.24 128.56 858.5 0.57 858.5"/>
        <path d="M309.69,319.47,237.11,919h-127l65.79-482.49,133.75-117M311,317,175,436,109,920H238l73-603Z"
              transform="translate(-109 -61)" style="fill:#fdfeff"/>
        <polygon points="115.96 1.5 235.74 1.5 835.05 857.51 716.71 858.57 115.96 1.5"/>
        <path d="M344.48,63,943.09,918l-117.13,1L225.92,63H344.48m.52-1H224L825.45,920.07,945,919,345,62Z"
              transform="translate(-109 -61)" style="fill:#fdfeff"/>
        <polygon points="344.5 619.5 344.5 855.5 766.5 219.5 714.5 233.5 344.5 619.5"
                 style="stroke:#fdfeff;stroke-miterlimit:10"/>
        <polygon points="2.03 402.88 343.5 619.27 342.51 857.51 2.03 402.88"/>
        <path d="M113.07,465.76,452,680.55,451,917,113.07,465.76M109,462,452,920l1-240L109,462Z"
              transform="translate(-109 -61)" style="fill:#fdfeff"/>
        <polygon points="344.29 134.56 242.52 1.16 763.37 214.87 714 226.49 344.29 134.56"/>
        <path d="M353,63.32l517.7,212.42L823,287,453.58,195.11,353,63.32M350,61,453,196l370,92,51-12L350,61Z"
              transform="translate(-109 -61)" style="fill:#fdfeff"/>
    </symbol>

    <symbol id="banner" viewBox="0 0 1024 1024">
        <title>banner_white</title>
        <path d="M512,1009A497.14,497.14,0,0,1,318.55,54.05,497.13,497.13,0,0,1,705.45,970,493.9,493.9,0,0,1,512,1009Z"
              style="fill:#fcfcfc"/>
        <path d="M512,30A482.13,482.13,0,0,1,699.61,956.13,482.13,482.13,0,0,1,324.39,67.87,478.93,478.93,0,0,1,512,30m0-30C229.23,0,0,229.23,0,512s229.23,512,512,512,512-229.23,512-512S794.77,0,512,0Z"
              style="fill:#CECECE"/>
        <rect id="Desctop" x="190.5" y="243.8" width="643.5" height="400.61" rx="29"
              style="fill:#fff;stroke:#000;stroke-miterlimit:10;stroke-width:31px"/>
        <path id="lamp2"
              d="M333.22,264.44v-44a6.81,6.81,0,0,1,2.5-5.27l4.27-3.49a6.8,6.8,0,0,1,4.32-1.54h7.33a6.84,6.84,0,0,1,4.81,2l3.09,3.09a6.8,6.8,0,0,1,2,4.82v44.43a6.81,6.81,0,0,0,6.2,6.78l.2,0a6.85,6.85,0,0,1,3.94,1.72l3.92,3.53a6.81,6.81,0,0,1,2.26,5.07v7.16a6.85,6.85,0,0,1-1.49,4.25l-2.76,3.44a6.8,6.8,0,0,1-5.32,2.56H327.4a6.81,6.81,0,0,1-4.82-2l-3.09-3.08a6.8,6.8,0,0,1-2-4.82v-7.73a6.78,6.78,0,0,1,2-4.81l3.34-3.34a6.83,6.83,0,0,1,4.2-2h0A6.81,6.81,0,0,0,333.22,264.44Z"/>
        <path id="lamp1"
              d="M502.06,264.44v-44a6.81,6.81,0,0,1,2.5-5.27l4.27-3.49a6.79,6.79,0,0,1,4.31-1.54h7.33a6.84,6.84,0,0,1,4.82,2l3.08,3.09a6.81,6.81,0,0,1,2,4.82v44.43a6.81,6.81,0,0,0,6.19,6.78l.2,0A6.79,6.79,0,0,1,540.7,273l3.93,3.53a6.84,6.84,0,0,1,2.25,5.07v7.16a6.79,6.79,0,0,1-1.49,4.25l-2.75,3.44a6.81,6.81,0,0,1-5.32,2.56H496.23a6.81,6.81,0,0,1-4.82-2l-3.08-3.08a6.81,6.81,0,0,1-2-4.82v-7.73a6.79,6.79,0,0,1,2-4.81l3.34-3.34a6.8,6.8,0,0,1,4.2-2h0A6.81,6.81,0,0,0,502.06,264.44Z"/>
        <path id="lamp"
              d="M676.82,264.44v-44a6.81,6.81,0,0,1,2.5-5.27l4.27-3.49a6.77,6.77,0,0,1,4.31-1.54h7.33a6.84,6.84,0,0,1,4.82,2l3.08,3.09a6.81,6.81,0,0,1,2,4.82v44.43a6.81,6.81,0,0,0,6.19,6.78l.2,0a6.79,6.79,0,0,1,3.94,1.72l3.93,3.53a6.84,6.84,0,0,1,2.25,5.07v7.16a6.79,6.79,0,0,1-1.49,4.25l-2.75,3.44a6.81,6.81,0,0,1-5.32,2.56H671a6.81,6.81,0,0,1-4.82-2l-3.08-3.08a6.81,6.81,0,0,1-2-4.82v-7.73a6.79,6.79,0,0,1,2-4.81l3.34-3.34a6.8,6.8,0,0,1,4.19-2h0A6.81,6.81,0,0,0,676.82,264.44Z"/>
        <rect id="Leg_right" x="560.38" y="643.3" width="29.62" height="225.11"/>
        <rect id="Leg_left" x="444.86" y="641.08" width="29.62" height="225.11"/>
        <rect id="Land" x="401.17" y="851.39" width="234" height="31.1" rx="15.55"/>
    </symbol>

    <symbol id="print" viewBox="0 0 1024 1024">
        <title>print_white</title>
        <g id="BG">
            <path d="M514,1009A497.14,497.14,0,0,1,320.55,54.05,497.13,497.13,0,0,1,707.45,970,493.9,493.9,0,0,1,514,1009Z"
                  transform="translate(-2)" style="fill:#fff"/>
            <path d="M514,30A482.13,482.13,0,0,1,701.61,956.13,482.13,482.13,0,0,1,326.39,67.87,478.93,478.93,0,0,1,514,30m0-30C231.23,0,2,229.23,2,512s229.23,512,512,512,512-229.23,512-512S796.77,0,514,0Z"
                  transform="translate(-2)" style="fill:#CECECE"/>
        </g>
        <rect x="188.5" y="358.37" width="646.34" height="345.75" rx="65.25"
              style="fill:#fff;stroke:#050505;stroke-miterlimit:10;stroke-width:19px"/>
        <rect x="263.79" y="595.48" width="483.97" height="45.7" rx="22.85"/>
        <rect x="307.62" y="602.97" width="399.21" height="206.03"
              style="fill:#fff;stroke:#000;stroke-miterlimit:10;stroke-width:16px"/>
        <rect x="314.22" y="608.97" width="386.36" height="49.45"/>
        <rect x="389.06" y="657.66" width="235.89" height="15.73"/>
        <rect x="389.06" y="722.09" width="235.89" height="15.73"/>
        <rect x="298.26" y="324.28" width="415.8" height="31.47" style="fill:#020202"/>
        <rect x="322.6" y="235.5" width="367.1" height="125.86"
              style="fill:#fff;stroke:#000;stroke-miterlimit:10;stroke-width:19px"/>
        <path d="M322.53,363.61H691a0,0,0,0,1,0,0V467.08a40.37,40.37,0,0,1-40.37,40.37h-288a40.12,40.12,0,0,1-40.12-40.12V363.61A0,0,0,0,1,322.53,363.61Z"
              style="stroke:#000;stroke-miterlimit:10;stroke-width:19px"/>
        <circle cx="766.12" cy="451.26" r="16.86"/>
    </symbol>

    <symbol id="auto" viewBox="0 0 1024 1024">
        <title>okleika_auto_white</title>
        <g id="BG">
            <path d="M512.5,1009A496.13,496.13,0,0,1,319.44,56,496.13,496.13,0,0,1,705.56,970,492.86,492.86,0,0,1,512.5,1009Z"
                  transform="translate(-1.5 -2)" style="fill:#fff"/>
            <path d="M512.5,32A481.13,481.13,0,0,1,699.72,956.21,481.13,481.13,0,0,1,325.28,69.79,477.85,477.85,0,0,1,512.5,32m0-30C230.28,2,1.5,230.78,1.5,513s228.78,511,511,511,511-228.78,511-511S794.72,2,512.5,2Z"
                  transform="translate(-1.5 -2)" style="fill:#CECECE"/>
        </g>
        <path id="Car_body"
              d="M231.72,726.29l1-63.78c0-2.5-3.63-12.32-5.12-14.33l-21.5-24.57c-1.38-1.86-6.14-7.17-7.33-14.82l-3.93-50.7A37.67,37.67,0,0,1,199,537.61l14.54-25.24a11.62,11.62,0,0,0-8.56-17.05l-3.56-.51a11.63,11.63,0,0,1-9.85-9.77l-12-56c-1-6.85,6.39-13,13.31-13.31l61.58.27a11.61,11.61,0,0,0,10-6.61L285,351.28c5.12-12.28,54.64-48,57.33-49.14l46.07-16.38c8.19-4.09,31.74-8.19,58.36-10.24l127-1c24.57,0,81.9,16.38,91.11,21.5l47.92,24.07c14.54,7.67,32.63,46,34,48.62l15.26,39a11.65,11.65,0,0,0,10,6.24l58.7-.19c6.75.18,15,7.61,14.33,14.34l-7.17,56.31c-.6,5.93-8.63,12.28-14.59,12.28h0a11.62,11.62,0,0,0-10.3,17l13.63,22.93c.87,1.66,3.07,13.48,3.07,15.35l-1,43c0,9.22-5,21.68-6.14,23.55L803,648.18c-1.11,1.73-6.15,9.21-6.15,18.43L794,729.41a11.63,11.63,0,0,1-3.68,8l-8.53,8a11.64,11.64,0,0,1-7.93,3.12H703.52a11.63,11.63,0,0,1-7.06-2.39l-9.72-7.43a11.63,11.63,0,0,1-4.56-9.23V709a11.63,11.63,0,0,0-11.66-11.62l-311,.95a11.63,11.63,0,0,0-11.48,10L344.9,731.1a11.64,11.64,0,0,1-3.6,6.92l-8,7.39a11.64,11.64,0,0,1-7.91,3.1h-71.5a11.6,11.6,0,0,1-8.21-3.4l-10.6-10.6A11.61,11.61,0,0,1,231.72,726.29Z"
              transform="translate(-1.5 -2)" style="stroke:#000;stroke-miterlimit:10"/>
        <circle cx="323.38" cy="574.52" r="50.17" style="fill:#fcfcfc;stroke:#000;stroke-miterlimit:10"/>
        <circle cx="703.2" cy="574.52" r="50.17" style="fill:#fcfcfc;stroke:#000;stroke-miterlimit:10"/>
        <path d="M721.08,439.33H306.45l20.29-44.75c9.3-20.53,13.5-27.94,37-45.34l33.79-13.31c29.69-8.19,47-8.19,72.84-8.19H561c13.85,0,45.54,4.08,58.78,8.19l32.76,11.26c32.76,16.38,41.32,30.51,58.37,62.95Z"
              transform="translate(-1.5 -2)" style="fill:#fcfcfc;stroke:#000;stroke-miterlimit:10"/>
    </symbol>

    <symbol id="human" viewBox="0 0 1024 1024">
        <title>Rost_figure_white</title>
        <g id="BG">
            <path d="M511.5,1009.5A497.14,497.14,0,0,1,318.05,54.55,497.13,497.13,0,0,1,705,970.45,493.9,493.9,0,0,1,511.5,1009.5Z"
                  transform="translate(0.5 0)" style="fill:#fff"/>
            <path d="M511.5,30.5A482.13,482.13,0,0,1,699.11,956.63,482.13,482.13,0,0,1,323.89,68.37,478.93,478.93,0,0,1,511.5,30.5m0-30C228.73.5-.5,229.73-.5,512.5s229.23,512,512,512,512-229.23,512-512S794.27.5,511.5.5Z"
                  transform="translate(0.5 0)" style="fill:#CECECE"/>
        </g>
        <circle id="Head" cx="512.5" cy="201" r="83.5" style="stroke:#000;stroke-miterlimit:10"/>
        <polygon id="Leg" points="600 911.5 437 911.5 395 590.5 638 589.5 600 911.5"/>
        <path id="Body"
              d="M633.44,637H395.56A38.57,38.57,0,0,1,357,598.44l1-207.88c0-21.29,13-59.56,79-80.56H600c56,20,73,59.27,73,80.56l-1,207.88A38.57,38.57,0,0,1,633.44,637Z"
              transform="translate(0.5 0)"/>
    </symbol>

    <symbol id="infoStand" viewBox="0 0 1024 1024">
        <title>info_stand_white</title>
        <g id="BG">
            <path d="M512,1009A497.14,497.14,0,0,1,318.55,54.05,497.13,497.13,0,0,1,705.45,970,493.9,493.9,0,0,1,512,1009Z"
                  style="fill:#fff"/>
            <path d="M512,30A482.13,482.13,0,0,1,699.61,956.13,482.13,482.13,0,0,1,324.39,67.87,478.93,478.93,0,0,1,512,30m0-30C229.23,0,0,229.23,0,512s229.23,512,512,512,512-229.23,512-512S794.77,0,512,0Z"
                  style="fill:#CECECE"/>
        </g>
        <rect x="200.5" y="200.5" width="622.5" height="622.5" rx="79.5"
              style="fill:#fff;stroke:#000;stroke-miterlimit:10;stroke-width:30px"/>
        <polygon points="487.03 698.54 295.63 698.54 295.63 458.94 435.4 458.94 487.03 510.38 487.03 698.54"
                 style="fill:#fcfcfc;stroke:#000;stroke-miterlimit:10;stroke-width:14px"/>
        <polygon points="731.99 698.54 540.59 698.54 540.59 458.94 680.36 458.94 731.99 510.38 731.99 698.54"
                 style="fill:#fcfcfc;stroke:#000;stroke-miterlimit:10;stroke-width:14px"/>
        <circle cx="277.44" cy="269.44" r="14.44"/>
        <circle cx="763.62" cy="269.44" r="14.44"/>
        <circle cx="277.44" cy="754.84" r="14.44"/>
        <circle cx="763.62" cy="754.84" r="14.44"/>
        <text transform="translate(305 408.95) scale(1.09 1)"
              style="font-size:138.51705932617188px;font-family:MyriadPro-Regular, Myriad Pro">ИНФО
        </text>
    </symbol>

    <symbol id="plotter" viewBox="0 0 1024 1024">
        <title>plotter_white</title>
        <g id="Layer_6" >
            <g id="BG">
                <path d="M512.5,1010A497.63,497.63,0,0,1,318.85,54.09,497.63,497.63,0,0,1,706.14,970.91,494.29,494.29,0,0,1,512.5,1010Z"
                      style="fill:#fff"/>
                <path d="M512.5,30A482.63,482.63,0,0,1,700.3,957.09,482.63,482.63,0,0,1,324.7,67.9,479.45,479.45,0,0,1,512.5,30m0-30C229.45,0,0,229.45,0,512.5S229.45,1025,512.5,1025,1025,795.55,1025,512.5,795.55,0,512.5,0Z"
                      style="fill:#CECECE"/>
            </g>
        </g>
        <g id="Niz">
            <path d="M249.93,417.14c-34.23,29.59-34.93,81.13-6.76,109.07,29.19,29,83.21,26.43,111.61-11"
                  style="fill:#fff;stroke:#000;stroke-miterlimit:10;stroke-width:8px"/>
            <rect x="329.41" y="463.64" width="383.03" height="77.79"
                  style="fill:#fff;stroke:#000;stroke-miterlimit:10;stroke-width:7px"/>
            <path d="M393.51,541.43H649.18a31.13,31.13,0,0,1,31.13,31.13v18.08a31.13,31.13,0,0,1-31.12,31.13H393.51a31.13,31.13,0,0,1-31.12-31.12V572.55A31.12,31.12,0,0,1,393.51,541.43Z"
                  style="fill:#fff;stroke:#000;stroke-miterlimit:10;stroke-width:7px"/>
            <polygon points="523.04 756.2 416.5 621.75 625.35 621.75 523.04 756.2"
                     style="fill:#fff;stroke:#000;stroke-miterlimit:10;stroke-width:7px"/>
            <path d="M495.14,721.53a30.18,30.18,0,0,1,52.42,0"
                  style="fill:#fff;stroke:#000;stroke-miterlimit:10;stroke-width:7px"/>
            <path d="M1195.5,742.5" style="fill:#fff;stroke:#000;stroke-miterlimit:10;stroke-width:7px"/>
            <line x1="458.78" y1="675.87" x2="582.23" y2="675.02"
                  style="fill:#fff;stroke:#000;stroke-miterlimit:10;stroke-width:7px"/>
            <line x1="365.35" y1="562.99" x2="675.66" y2="562.99"
                  style="fill:#fff;stroke:#000;stroke-miterlimit:10;stroke-width:8px"/>
            <line x1="365.35" y1="581.59" x2="675.66" y2="580.75"
                  style="fill:#fff;stroke:#000;stroke-miterlimit:10;stroke-width:8px"/>
            <line x1="365.35" y1="600.19" x2="675.66" y2="600.19"
                  style="fill:#fff;stroke:#000;stroke-miterlimit:10;stroke-width:8px"/>
        </g>
        <g id="Seredina">
            <path d="M214.84,338.08c-36.16,29.64-36.69,83.52-6.76,111.61s83.38,24.2,110.76-13.53"
                  style="fill:#fff;stroke:#000;stroke-miterlimit:10;stroke-width:8px"/>
            <path d="M291.53,360.48H751.86a0,0,0,0,1,0,0v61.16a42,42,0,0,1-42,42H331.4a39.87,39.87,0,0,1-39.87-39.87V360.48a0,0,0,0,1,0,0Z"
                  style="fill:#fff;stroke:#000;stroke-miterlimit:10;stroke-width:7px"/>
            <line x1="291.78" y1="383.74" x2="748.37" y2="383.74"
                  style="fill:#fff;stroke:#000;stroke-miterlimit:10;stroke-width:8px"/>
            <line x1="291.78" y1="403.18" x2="748.37" y2="403.18"
                  style="fill:#fff;stroke:#000;stroke-miterlimit:10;stroke-width:8px"/>
            <line x1="291.78" y1="421.79" x2="748.37" y2="421.79"
                  style="fill:#fff;stroke:#000;stroke-miterlimit:10;stroke-width:8px"/>
        </g>
        <g id="Verh">
            <path d="M257.54,234.5H785.15a0,0,0,0,1,0,0v84a42,42,0,0,1-42,42H297.42a39.88,39.88,0,0,1-39.87-39.87V234.5A0,0,0,0,1,257.54,234.5Z"
                  style="fill:#fff;stroke:#000;stroke-miterlimit:10;stroke-width:7px"/>
            <line x1="257.12" y1="252.68" x2="783.89" y2="252.68"
                  style="fill:#fff;stroke:#000;stroke-miterlimit:10;stroke-width:8px"/>
            <line x1="257.12" y1="272.13" x2="783.89" y2="272.13"
                  style="fill:#fff;stroke:#000;stroke-miterlimit:10;stroke-width:8px"/>
            <line x1="257.12" y1="290.73" x2="783.89" y2="290.73"
                  style="fill:#fff;stroke:#000;stroke-miterlimit:10;stroke-width:8px"/>
            <line x1="257.12" y1="309.33" x2="783.89" y2="309.33"
                  style="fill:#fff;stroke:#000;stroke-miterlimit:10;stroke-width:8px"/>
        </g>
        <g id="Strujki">
            <line x1="205.54" y1="772.68" x2="226.68" y2="776.06"
                  style="stroke:#554682;stroke-miterlimit:10;stroke-width:8px"/>
            <line x1="259.65" y1="780.29" x2="289.25" y2="785.37"
                  style="stroke:#554682;stroke-miterlimit:10;stroke-width:8px"/>
            <line x1="319.69" y1="787.9" x2="344.21" y2="792.13"
                  style="stroke:#554682;stroke-miterlimit:10;stroke-width:8px"/>
            <line x1="377.18" y1="797.2" x2="405.93" y2="801.43"
                  style="stroke:#554682;stroke-miterlimit:10;stroke-width:8px"/>
            <line x1="437.22" y1="805.66" x2="464.27" y2="809.89"
                  style="stroke:#554682;stroke-miterlimit:10;stroke-width:8px"/>
            <line x1="577.58" y1="808.2" x2="607.17" y2="803.97"
                  style="stroke:#554682;stroke-miterlimit:10;stroke-width:8px"/>
            <line x1="636.76" y1="799.74" x2="667.2" y2="795.51"
                  style="stroke:#554682;stroke-miterlimit:10;stroke-width:8px"/>
            <line x1="695.95" y1="790.44" x2="723.85" y2="786.21"
                  style="stroke:#554682;stroke-miterlimit:10;stroke-width:8px"/>
            <line x1="756.83" y1="782.83" x2="784.73" y2="777.76"
                  style="stroke:#554682;stroke-miterlimit:10;stroke-width:8px"/>
            <line x1="815.17" y1="774.37" x2="838" y2="770.15"
                  style="stroke:#554682;stroke-miterlimit:10;stroke-width:8px"/>
            <line x1="784.73" y1="777.76" x2="784.73" y2="777.76"
                  style="stroke:#554682;stroke-miterlimit:10;stroke-width:8px"/>
            <line x1="241.9" y1="824.26" x2="262.19" y2="823.41"
                  style="stroke:#554682;stroke-miterlimit:10;stroke-width:8px"/>
            <line x1="295.17" y1="824.26" x2="323.07" y2="824.26"
                  style="stroke:#554682;stroke-miterlimit:10;stroke-width:8px"/>
            <line x1="355.2" y1="824.26" x2="383.95" y2="824.26"
                  style="stroke:#554682;stroke-miterlimit:10;stroke-width:8px"/>
            <line x1="414.39" y1="824.26" x2="443.98" y2="824.26"
                  style="stroke:#554682;stroke-miterlimit:10;stroke-width:8px"/>
            <line x1="473.57" y1="824.26" x2="503.17" y2="824.26"
                  style="stroke:#554682;stroke-miterlimit:10;stroke-width:8px"/>
            <line x1="541.22" y1="824.26" x2="568.27" y2="824.26"
                  style="stroke:#554682;stroke-miterlimit:10;stroke-width:8px"/>
            <line x1="599.56" y1="824.26" x2="630" y2="824.26"
                  style="stroke:#554682;stroke-miterlimit:10;stroke-width:8px"/>
            <line x1="660.44" y1="824.26" x2="689.19" y2="824.26"
                  style="stroke:#554682;stroke-miterlimit:10;stroke-width:8px"/>
            <line x1="718.78" y1="824.26" x2="749.22" y2="824.26"
                  style="stroke:#554682;stroke-miterlimit:10;stroke-width:8px"/>
            <line x1="779.66" y1="824.26" x2="800.8" y2="824.26"
                  style="stroke:#554682;stroke-miterlimit:10;stroke-width:8px"/>
        </g>
    </symbol>

    <symbol id="streetLine" viewBox="0 0 1024 1024">
        <title>StreetLine_white</title>
        <g id="Layer_3" >
            <path d="M512,1009A497.14,497.14,0,0,1,318.55,54.05,497.13,497.13,0,0,1,705.45,970,493.9,493.9,0,0,1,512,1009Z"
                  style="fill:#fff"/>
            <path d="M512,30A482.13,482.13,0,0,1,699.61,956.13,482.13,482.13,0,0,1,324.39,67.87,478.93,478.93,0,0,1,512,30m0-30C229.23,0,0,229.23,0,512s229.23,512,512,512,512-229.23,512-512S794.77,0,512,0Z"
                  style="fill:#CECECE"/>
        </g>
        <path d="M230.3,781.58l-3.4-1.7c-2-1.31-3.4-4.86-3.4-7.28V717l69.31-532.23a64.89,64.89,0,0,1,11.33-29l1-1.41a64.92,64.92,0,0,1,26.15-21.65h0a65,65,0,0,1,25.25-5.79l284.19-7A51.37,51.37,0,0,1,666.37,126h0a51.46,51.46,0,0,1,16.92,14.64l5.42,7.3a51.44,51.44,0,0,1,9.38,21.91l106.7,619.36v47a11.68,11.68,0,0,1-3.41,8.24h0a11.67,11.67,0,0,1-13.45,2.18l-1.35-.67a11.65,11.65,0,0,1-6.44-10.42V816.42L425.76,855.51V876a15.08,15.08,0,0,1-4,10.23h0a11.62,11.62,0,0,1-12.95,2.87l-3.47-1.43a7.6,7.6,0,0,1-4.62-5.89L379,739.09,249.84,751.83l.62,18A10.78,10.78,0,0,1,246,779l-2.95,2.56C241,783.08,232.45,783,230.3,781.58Z"
              style="stroke:#000;stroke-miterlimit:10"/>
        <polygon points="308.48 282.73 249.84 728.04 373.92 713.59 308.48 282.73"
                 style="fill:#fffffd;stroke:#000;stroke-miterlimit:10"/>
        <path d="M777.92,792.49l-356,38.8L323.65,207.92c-4.45-32.28,8.93-59.27,41.49-60.36l260-5.91c31.32-1,48.08,17.75,53.74,48.57Z"
              style="fill:#fffffd"/>
        <path d="M733.83,766.09,450,797.3,361.42,233.56c-3.6-29.45,7.22-54.09,33.55-55.08l215.32-6.24c25.32-1,38.87,16.2,43.45,44.32Z"
              style="fill:#fcfcf7;stroke:#020202;stroke-miterlimit:10;stroke-width:20px"/>
        <path d="M628.45,393.63l-190.37,11.9a15.34,15.34,0,0,1-15.29-15.3L404.94,268.7a15.34,15.34,0,0,1,15.3-15.29l189.51-8.5a15.34,15.34,0,0,1,15.3,15.29l18.69,118.13A15.34,15.34,0,0,1,628.45,393.63Z"
              style="fill:#fcfcf7;stroke:#020202;stroke-miterlimit:10;stroke-width:20px"/>
        <path d="M646.24,462.73l-194.8,14.15c-4.66.44-8.89-3.09-9.89-8.25l-.45-2.35c-1.2-6.21,2.73-12.19,8.34-12.72l195-14c5-.47,9.37,3.55,10,9.12l.25,2.21C655.4,456.84,651.54,462.23,646.24,462.73Z"/>
        <path d="M656.44,513.72l-196.5,14.15c-4.66.44-8.89-3.09-9.89-8.25l-.45-2.35c-1.2-6.21,2.73-12.19,8.34-12.72l196.7-14c5-.47,9.37,3.55,10,9.12l.26,2.21C665.6,507.83,661.74,513.22,656.44,513.72Z"/>
        <path d="M667.49,566.41l-194.8,15.84c-4.67.45-8.9-3.08-9.89-8.24l-.45-2.35c-1.2-6.21,2.72-12.19,8.34-12.72l195-15.7c5-.47,9.38,3.55,10,9.12l.26,2.21C676.65,560.52,672.79,565.91,667.49,566.41Z"/>
    </symbol>

    <symbol id="rollUp" viewBox="0 0 1024 1024">
        <title>rollUp_white</title>
        <g id="BG">
            <path d="M512,1009A497.14,497.14,0,0,1,318.55,54.05,497.13,497.13,0,0,1,705.45,970,493.9,493.9,0,0,1,512,1009Z"
                  style="fill:#fff"/>
            <path d="M512,30A482.13,482.13,0,0,1,699.61,956.13,482.13,482.13,0,0,1,324.39,67.87,478.93,478.93,0,0,1,512,30m0-30C229.23,0,0,229.23,0,512s229.23,512,512,512,512-229.23,512-512S794.77,0,512,0Z"
                  style="fill:#CECECE"/>
        </g>
        <rect x="327.06" y="140" width="369.88" height="663.23"
              style="fill:#fff;stroke:#000;stroke-miterlimit:10;stroke-width:20px"/>
        <line x1="331.05" y1="166.31" x2="694.55" y2="166.31"
              style="fill:none;stroke:#000;stroke-miterlimit:10;stroke-width:20px"/>
        <rect x="288" y="780.91" width="448" height="24.71"
              style="fill:#fff;stroke:#000;stroke-miterlimit:10;stroke-width:20px"/>
        <rect x="329.45" y="810.41" width="62.18" height="23.12"
              style="fill:#fff;stroke:#000;stroke-miterlimit:10;stroke-width:20px"/>
        <rect x="633.17" y="810.41" width="62.18" height="23.12"
              style="fill:#fff;stroke:#000;stroke-miterlimit:10;stroke-width:20px"/>
    </symbol>

    <symbol id="cards" viewBox="0 0 1024 1024">
        <title>cards_white</title>
        <g id="BG">
            <path d="M512,1008A496.14,496.14,0,0,1,318.94,55,496.13,496.13,0,0,1,705.06,969,492.86,492.86,0,0,1,512,1008Z"
                  transform="translate(-1 -1)" style="fill:#fff"/>
            <path d="M512,31A481.13,481.13,0,0,1,699.22,955.21,481.13,481.13,0,0,1,324.78,68.79,477.85,477.85,0,0,1,512,31m0-30C229.78,1,1,229.78,1,512s228.78,511,511,511,511-228.78,511-511S794.22,1,512,1Z"
                  transform="translate(-1 -1)" style="fill:#CECECE"/>
        </g>
        <rect x="156.5" y="265.54" width="708.5" height="491.17" rx="63.87"
              style="fill:#fff;stroke:#000;stroke-miterlimit:10;stroke-width:29px"/>
        <rect x="169.73" y="382.9" width="682.87" height="36.38" style="stroke:#000;stroke-miterlimit:10"/>
        <rect x="169.73" y="463.92" width="682.87" height="36.38" style="stroke:#000;stroke-miterlimit:10"/>
        <rect x="501.24" y="544.94" width="155.42" height="36.38" rx="12.25" style="stroke:#000;stroke-miterlimit:10"/>
        <rect x="236.69" y="544.94" width="202.55" height="36.38" rx="12.25" style="stroke:#000;stroke-miterlimit:10"/>
        <rect x="236.69" y="628.44" width="229.83" height="36.38" rx="12.25" style="stroke:#000;stroke-miterlimit:10"/>
    </symbol>




    <symbol id="arrow"  viewBox="0 0 984 991.55">
        <title>menu_arrow</title>
        <path d="M788.59,544.19,745.13,586a44.84,44.84,0,0,1-62.74-.53L231.93,136.8a44.84,44.84,0,0,1,.54-64.06L276.81,30a44.84,44.84,0,0,1,62.81.59L789.19,480.19A44.83,44.83,0,0,1,788.59,544.19Z"
              transform="translate(-20 -16.99)" style="fill:#020202;stroke:#000;stroke-miterlimit:10"/>
        <path d="M748.77,439.9l41.68,43.62a44.84,44.84,0,0,1-.78,62.74L339.22,995a44.85,44.85,0,0,1-64.06-.78l-42.54-44.51a44.83,44.83,0,0,1,.83-62.81L684.77,439.05A44.83,44.83,0,0,1,748.77,439.9Z"
              transform="translate(-20 -16.99)" style="fill:#020202;stroke:#000;stroke-miterlimit:10"/>
    </symbol>

    <symbol id="hamburger" viewBox="0 0 1024.5 515.58">
        <title>hamburger</title>
        <rect x="0.5" y="0.5" width="1023.5" height="62.2" rx="14" style="stroke:#000;stroke-miterlimit:10"/>
        <rect x="0.5" y="226.69" width="1023.5" height="62.2" rx="14" style="stroke:#000;stroke-miterlimit:10"/>
        <rect x="0.5" y="452.88" width="1023.5" height="62.2" rx="14" style="stroke:#000;stroke-miterlimit:10"/>
    </symbol>

    <symbol id="close" viewBox="0 0 1024.98 1024.98">
        <title>close_black</title>
        <rect x="-65.31" y="365.46" width="1155.06" height="292.48" transform="translate(512.12 -211.53) rotate(45)"
              style="fill:currentColor;stroke:#000;stroke-miterlimit:10"/>
        <rect x="-65.31" y="365.46" width="1155.06" height="292.48" transform="translate(1236.51 512.12) rotate(135)"
              style="fill:currentColor;stroke:#000;stroke-miterlimit:10"/>
    </symbol>

    <symbol id="callMe" viewBox="0 0 1024 1024">

        <title>phone</title>
        <circle cx="512" cy="512" r="512" style="fill:currentColor"/>
        <path d="M257.5,806.5l49,19c87,16,150.69-22.71,188-45l85-59c60-39,183-186,206-237l21-45c19-44,25.61-110,15.42-153.58L806.5,257.5l-157,157,4.23,7.33a32.72,32.72,0,0,1-2.14,35.93l-60.5,80.89A229.61,229.61,0,0,1,548,582.52L455.89,654a33.45,33.45,0,0,1-36.66,2.87l-9.73-5.37Z"
              transform="translate(-0.5 -0.5)" style="fill:#fff"/>
        <path d="M210.89,644.72H381.74a19.8,19.8,0,0,1,19.8,19.8v65.76a0,0,0,0,1,0,0H184.46a0,0,0,0,1,0,0V671.14A26.43,26.43,0,0,1,210.89,644.72Z"
              transform="translate(-400.82 408.05) rotate(-45)" style="fill:#fff"/>
        <path d="M602.89,251.72H773.74a19.8,19.8,0,0,1,19.8,19.8v65.76a0,0,0,0,1,0,0H576.46a0,0,0,0,1,0,0V278.14A26.43,26.43,0,0,1,602.89,251.72Z"
              transform="translate(-8.11 570.13) rotate(-45)" style="fill:#fff"/>

    </symbol>

    <symbol id="clock" viewBox="0 0 1021.5 1021.5">
        <title>Время работы</title>
        <circle cx="510.75" cy="510.75" r="510.25" style="fill:#020202;stroke:#000;stroke-miterlimit:10"/>
        <circle cx="510.75" cy="510.75" r="448.84" style="fill:#fff;stroke:#000;stroke-miterlimit:10"/>
        <rect x="481.51" y="241.74" width="57.02" height="335.54"/>
        <rect x="570.47" y="520.43" width="57.02" height="268.61" transform="translate(-290.53 614.31) rotate(-45)"/>
    </symbol>

    <symbol id="male" viewBox="0 0 1015.19 713.96">
        <title>male</title>
        <rect x="21.25" y="42.15" width="972.36" height="630.76" rx="18"
              style="fill:#fff;stroke:#000;stroke-miterlimit:10;stroke-width:42px"/>
        <path d="M549,429.14l430.2,328.8c40,30.54,15.38,88.3-37.6,88.3H81.21c-53,0-77.57-57.76-37.6-88.3l430.2-328.8C495.37,412.67,527.44,412.67,549,429.14Z"
              transform="translate(-3.81 -152.28)" style="fill:#fff;stroke:#000;stroke-miterlimit:10;stroke-width:40px"/>
        <path d="M473.81,589.38,43.61,260.58c-40-30.55-15.38-88.3,37.6-88.3H941.6c53,0,77.57,57.75,37.6,88.3L549,589.38C527.44,605.85,495.37,605.85,473.81,589.38Z"
              transform="translate(-3.81 -152.28)" style="fill:#fff;stroke:#000;stroke-miterlimit:10;stroke-width:40px"/>
    </symbol>

    <symbol id="map_address"  viewBox="0 0 802.15 1025.32">
        <title>Адрес</title>
        <path d="M913,402c0,245-254,528-382,618-10.35,7.28-20.77,9.12-34,1C365,940,118,654,111,402,104.85,180.62,290.53,1,512,1S913,180.53,913,402Z"
              transform="translate(-110.85 -1)" style="fill:#020202"/>
        <circle cx="401.15" cy="401.5" r="269.5" style="fill:#fff"/>
        <circle cx="401.15" cy="400" r="155"/>
    </symbol>

    <symbol id="phone" viewBox="0 0 1019.28 1023.77">
        <title>phone</title>
        <path d="M106.74,987.19l78.79,30.55c139.9,25.73,242.31-36.51,302.31-72.36l136.68-94.87C721,787.8,918.79,551.42,955.77,469.41l33.77-72.36c30.55-70.75,41.18-176.91,24.79-246.95l-24.79-45.71L737.08,356.85l6.8,11.79a52.58,52.58,0,0,1-3.44,57.78L643.15,556.49A369,369,0,0,1,573.85,627L425.76,742a53.78,53.78,0,0,1-59,4.6L351.16,738Z"
              transform="translate(-2.72 -0.03)"/>
        <path d="M15.72,727H318.56a19.8,19.8,0,0,1,19.8,19.8V864.63a0,0,0,0,1,0,0H-10.7a0,0,0,0,1,0,0V753.47A26.43,26.43,0,0,1,15.72,727Z"
              transform="translate(-517.48 348.9) rotate(-45)"/>
        <path d="M646.06,95.1H948.9a19.8,19.8,0,0,1,19.8,19.8V232.68a0,0,0,0,1,0,0H619.64a0,0,0,0,1,0,0V121.52A26.43,26.43,0,0,1,646.06,95.1Z"
              transform="translate(114 609.53) rotate(-45)"/>
    </symbol>



    <symbol id="icq" viewBox="0 0 1020.18 1008.55">
        <title>icq</title>
        <circle cx="512.91" cy="504.04" r="167" style="fill:#fff;stroke:#000;stroke-miterlimit:10;stroke-width:100px"/>
        <path d="M754.39,209.09C734.25,279.6,642,383,570,383c-7.1,0-26.14-6.48-33-9-60-22-85.53-167.56-63.39-245.09a146,146,0,0,1,280.78,80.18Z"
              transform="translate(0.91 -7.96)" style="fill:#fff;stroke:#000;stroke-miterlimit:10;stroke-width:30px"/>
        <path d="M229.21,806.36c24.66-69.05,123.42-166.25,195.27-161.58,7.08.46,25.66,8.16,32.35,11.12,58.44,25.84,74.48,172.75,47.36,248.69a146,146,0,1,1-275-98.23Z"
              transform="translate(0.91 -7.96)" style="fill:#fff;stroke:#000;stroke-miterlimit:10;stroke-width:30px"/>
        <path d="M214.82,255.05c68,27.47,161.07,130.12,153.47,201.72-.75,7.05-9.2,25.3-12.43,31.86C327.65,546,180.21,556,105.45,525.8A146,146,0,1,1,214.82,255.05Z"
              transform="translate(0.91 -7.96)" style="fill:#fff;stroke:#000;stroke-miterlimit:10;stroke-width:30px"/>
        <path d="M820.4,786.57C749.58,767.57,644.71,677,643.55,605c-.11-7.1,6.06-26.24,8.47-33.14,21-60.35,166.17-88.21,244.05-67.31a146,146,0,0,1-75.67,282Z"
              transform="translate(0.91 -7.96)" style="fill:#fff;stroke:#000;stroke-miterlimit:10;stroke-width:30px"/>
        <path d="M838.3,464.37c-46.86,30-147.78,47.89-184.73,18-3.64-2.95-10.05-14.38-12.27-18.6-19.4-36.9,42.92-126.69,94.45-159.66S852,280.27,880.34,324.53,889.84,431.4,838.3,464.37Z"
              transform="translate(0.91 -7.96)" style="fill:#fff;stroke:#000;stroke-miterlimit:10;stroke-width:30px"/>
        <path d="M554.64,829.85c-23.1-50.61-26.64-153,8.17-185.42,3.43-3.19,15.66-7.93,20.15-9.54,39.26-14,119.39,60.3,144.79,116S735,869.31,687.19,891.12,580,885.51,554.64,829.85Z"
              transform="translate(0.91 -7.96)" style="fill:#fff;stroke:#000;stroke-miterlimit:10;stroke-width:30px"/>
        <path d="M435.74,176.33c27.63,48.29,42.12,149,12.26,183.41-2.95,3.39-14.15,8.92-18.28,10.82-36.12,16.57-121-51.1-151.36-104.21s-19.77-116.3,23.69-141.16S405.36,123.22,435.74,176.33Z"
              transform="translate(0.91 -7.96)" style="fill:#fff;stroke:#000;stroke-miterlimit:10;stroke-width:30px"/>
        <path d="M166,571.17c48.4-27.43,149.22-41.53,183.47-11.53,3.37,3,8.86,14.18,10.74,18.32,16.43,36.18-51.57,120.78-104.79,150.95S139,748.22,114.34,704.67,112.78,601.34,166,571.17Z"
              transform="translate(0.91 -7.96)" style="stroke:#000;stroke-miterlimit:10;stroke-width:30px"/>
    </symbol>

    <symbol id="instagram" viewBox="0 0 1024.5 1024">
        <title>instagram</title>
        <rect x="0.5" width="1024" height="1024" rx="117.5"/>
        <rect y="425.5" width="1024" height="86" style="fill:#fcfcfc"/>
        <circle cx="512" cy="511.5" r="301" style="fill:#fcfcfc"/>
        <circle cx="512" cy="511.5" r="214"/>
        <rect x="770" y="85.5" width="168" height="169.01" rx="27.56" style="fill:#fcfcfc"/>
    </symbol>

    <symbol id="skype" viewBox="0 0 1011.58 1020.96">
        <title>skype</title>
        <g id="Layer_2" >
            <path d="M368,68l59.5,33.5,85-12C685.5,77.5,826,165,890,269c0,0,109,158,72.5,290.5l-24,67,33,97.06C992,804,973.37,857.56,933,906c0,0-102,102-225.5,69.5l-90-39-81,23c-112,16-205.81-32.74-271.07-81l-24.24-17.93C167.5,806.08,100,692,100,692,46.64,618.85,32,515,68.28,449L92,414,65,321c-24-83-9.81-135.52,9.5-169.5C74.5,151.5,172-25,368,68Z"
                  transform="translate(-8.3 -0.93)" style="fill:#fff;stroke:#000;stroke-miterlimit:10;stroke-width:80px"/>
        </g>
        <g id="Layer_3" >
            <path d="M704,345C665.8,239.46,585.45,220.51,485,223c-84.43,2.09-192.78,68.16-164,166,40,136,373,58,408,238,15.71,80.82-78.25,170.32-210,167-91.28-2.3-201-48-221-143"
                  transform="translate(-8.3 -0.93)"
                  style="fill:none;stroke:#000;stroke-linecap:round;stroke-miterlimit:10;stroke-width:120px"/>
        </g>
    </symbol>

    <symbol id="twitter" viewBox="0 0 900.85 754">
        <title>twitter</title>
        <g id="Layer_2">
            <path d="M208,190l69,65c22.42,18.43,63.85,47.76,91,58l77,24,20-64c33-71,95-97,95-97,34-27,113-27,113-27,31.39,0,59.38,9.12,88,22l37,21,70-31c14.88-6.09,37,2,37,2,28,9,34.37,33.4,37,48l-5,20,21,23c10.47,18.85,13,45-30,95l-46,43v49c-1.31,15.9-13,59-19,85l-21,61c-20.56,46.45-43.51,92.1-77.83,129.54l-24.62,26.85C695.67,791.27,641,836,579,859l-67,24c-10.06,3.2-64.48,14.06-75,15l-77,5c-57,0-120.08-12-173-32l-58-26c-50-22-59-45-59-45-12-20-6-56,9-67,0,0,21-21,96-17l44-5-25-24c-17.39-21.82-35.41-53-42-80.17L152,581l-24-30c-19-32-44-101-31-136l12-21L96,341.75C88,309,108,237,108,237c19-48,38.25-55,58-60C166,177,195,174,208,190Z"
                  transform="translate(-63.62 -149)" style="fill:#020202"/>
        </g>
        <g id="Layer_3">
            <path d="M883,219l-48,22.15a51.49,51.49,0,0,1-8.25,3L783,256l-39.84-29.31A143,143,0,0,0,669.06,206H658a143.1,143.1,0,0,0-80.35,24.7l-10.94,7.43a143.08,143.08,0,0,0-50.27,60.05h0A143.09,143.09,0,0,0,504,356.46L507,402l-36-2c-91-10-172.49-52.06-221-91l-76-72-7,13c-24,46-18,120,23.19,169.06L222,451l-36-6-36-14,2,22c9,52,32,92,90,125l37,12-18.09,3.29a128.72,128.72,0,0,1-30,1.89L209,594l9.6,26.53C245.5,659.17,274,691,330,702l27,3-65,40.33c-28.36,14.3-53,18.67-91,24.9L123,771l66.78,38.66a303.58,303.58,0,0,0,61.31,21.78C317.3,847,402.37,848.33,469,833.08h0A446.45,446.45,0,0,0,669.56,728.4l3.47-3.15A446.46,446.46,0,0,0,784.3,568.19l5.38-12.77a446.47,446.47,0,0,0,32.94-129.84L825,365l38.15-33.15a135.9,135.9,0,0,0,16.21-17.11L904,282l-40.66,13.55a75,75,0,0,1-8.82,2.37L815,306,846.82,277a100.89,100.89,0,0,0,22.61-30.2Z"
                  transform="translate(-63.62 -149)" style="fill:#fcfafa"/>
        </g>
    </symbol>

    <symbol id="vk" viewBox="0 0 1023.72 607.79">
        <title>vk</title>
        <path d="M2.76,239.48A20.9,20.9,0,0,0,4,243.27L98.43,466.14C142,556,241.64,662.47,252.75,675.93a21.52,21.52,0,0,0,1.78,1.92c78,74,132.64,106.92,239.43,118.78a21.8,21.8,0,0,0,2.91.13l56.07-1.37c28.08-1.81,46.27-16.79,45.2-45.68V641.63c0-31.77,39.09-35,63.45-15.59.51.4,1,.79,1.56,1.14l33.44,21.94c20.33,13.92,40.3,35,43.84,38.62L831,780.31c.28.29.57.56.87.84,7.06,6.44,17.12,15.64,38.08,15.64H985.5c27.88,0,46.17-28.57,35.34-53.6a21.32,21.32,0,0,0-2.39-4.14L951,646c-2.43-3.3-32.64-37.64-33-38l-60.4-60c-.34-.34-.67-.68-1-1-19.51-22-21.93-36.51-6-61.53L964.49,309.9a22.26,22.26,0,0,0,1.24-2.18l33.7-68.43a22.11,22.11,0,0,0,1.7-4.8C1010,195.14,983.2,189,961.75,189H854.93c-15.45,0-34,11.14-41.3,24.77L756.51,324.9c-5.32,10-45.61,76.38-77.64,112.88-.32.37-.65.72-1,1.06l-36.4,36.4a21.14,21.14,0,0,1-4,3.13c-19.17,11.67-36.86,4.85-39.28-17.69-.06-.63-.09-1.28-.1-1.92l-2.94-241.17C595.05,205.9,586.6,189,574.9,189h-189c-8.24,0-19.91,13.91-19.91,13.91-3.06,6.43-3.17,19.73.47,25.85l28.42,38.35a87.49,87.49,0,0,1,10.7,36.39L406,510.93c-1,19.16-35.36,22.48-48,8.07l-12.39-15.4C325.28,477.92,285,422,262.14,374.12L193.66,212.54c-4.88-11.2-22.88-23.54-35.1-23.54H49.71C17.51,189-7.93,189,2.76,239.48Z"
              transform="translate(-0.28 -189)"/>
    </symbol>

    <symbol id="ldpr" viewBox="0 0 1947 794">
        <title>ldpr</title>
        <path d="M49,688l6.83-1.58a58,58,0,0,0,45-56.77L99,124l403,3V805H334l-8-547H284l.94,427.73a115.41,115.41,0,0,1-11.25,50l-1.67,3.5A115.56,115.56,0,0,1,216,794.47h0A115.54,115.54,0,0,1,167.75,805H49Z"
              transform="translate(-49 -124)"/>
        <path d="M1047,658V124H655L643.29,396.6a631.43,631.43,0,0,1-13.52,105.65L595,664H560V918H678l-3-113H963l1,113h116V658Zm-176,3H770l29.78-149.67a632.34,632.34,0,0,0,11.45-93.52L819,253h52Z"
              transform="translate(-49 -124)"/>
        <polygon points="1089 681 1089 0 1497 0 1497 681 1317 681 1317 136 1265 135 1262 681 1089 681"/>
        <path d="M1981.69,194.56l-7.77-12.17a91.25,91.25,0,0,0-40.33-34.51l-37.11-16.23a91.09,91.09,0,0,0-36.56-7.65H1620V805h188V521h89.56a91.17,91.17,0,0,0,77.57-43.24l7.24-11.72a91.17,91.17,0,0,0,13.63-48V243.61A91.28,91.28,0,0,0,1981.69,194.56ZM1857,373.82c0,16.14-13.57,33.37-29,38L1800,415V241l28.49,3.54c16.67,3.78,31.51,15.6,31.51,32.69Z"
              transform="translate(-49 -124)"/>
    </symbol>

    <symbol id="ya-taxi" viewBox="0 0 1965.78 539">

        <title>ya_taxi</title>
        <text transform="translate(143.16 377.68) scale(0.79 1)" style="font-size:352.8881530761719px;font-family:Consolas">
            ндекс
        </text>
        <text transform="translate(0 385.39) scale(0.63 1)"
              style="font-size:418.2368469238281px;fill:red;font-family:Consolas">Я
        </text>
        <text transform="translate(1054.18 361.89) scale(1.05 1)"
              style="font-size:267.4309387207031px;font-family:MyriadPro-Regular, Myriad Pro">
            <tspan style="letter-spacing:-0.07998714981267159em">Т</tspan>
            <tspan x="111.52" y="0">а</tspan>
            <tspan x="240.42" y="0" style="letter-spacing:-0.005996766056604538em">к</tspan>
            <tspan x="366.91" y="0">си</tspan>
        </text>
        <polygon points="934.39 20 934.39 519 1784.63 519 1942 291.05 1779.16 20 934.39 20"
                 style="fill:none;stroke:#000;stroke-miterlimit:10;stroke-width:40px"/>

    </symbol>

    <symbol id="advantages_bg" viewBox="0 0 997.31 1018.25">
        <g id="Leafs_right">
            <path d="M534.5,873.5l5-14c7-22,29.74-42.86,47-52l28-12-2,15c-3,24-32,53-57,59Z"
                  transform="translate(-15.65 4.24)" style="stroke:#000;stroke-miterlimit:10"/>
            <path d="M612.11,861l2.45-14.67c3-22.89,21.71-47.44,37.08-59.47l25.45-16.76.67,15.12c1.29,24.15-22.14,57.82-45.69,68.13Z"
                  transform="translate(-15.65 4.24)" style="stroke:#000;stroke-miterlimit:10"/>
            <path d="M687.14,836.7l-.64-14.86c-1.81-23,11.4-50.91,23.94-65.87l21.42-21.67,3.8,14.65c6.26,23.36-9.68,61.15-30.57,76.13Z"
                  transform="translate(-15.65 4.24)" style="stroke:#000;stroke-miterlimit:10"/>
            <path d="M755.69,796.1l-3.56-14.43c-6.32-22.21,1.12-52.16,10.46-69.31l16.72-25.46,6.61,13.61c10.76,21.66,2.6,61.85-14.93,80.66Z"
                  transform="translate(-15.65 4.24)" style="stroke:#000;stroke-miterlimit:10"/>
            <path d="M814.2,747.35,808,733.85c-10.39-20.62-8.73-51.44-2.8-70l11.62-28.16,9.06,12.12c14.65,19.24,14.22,60.25.55,82Z"
                  transform="translate(-15.65 4.24)" style="stroke:#000;stroke-miterlimit:10"/>
            <path d="M861.56,684.63,853,672.51c-14-18.34-18.1-48.93-15.71-68.31l6.2-29.83,11.15,10.23c18,16.21,25.12,56.59,15.72,80.52Z"
                  transform="translate(-15.65 4.24)" style="stroke:#000;stroke-miterlimit:10"/>
            <path d="M894.74,615.3l-10.53-10.48c-16.92-15.71-26.11-45.17-27-64.68l1.08-30.44L871,517.9c20.44,12.93,34.32,51.53,29.1,76.7Z"
                  transform="translate(-15.65 4.24)" style="stroke:#000;stroke-miterlimit:10"/>
            <path d="M916.16,540.45l-12.46-8.11c-19.77-11.91-34.8-38.87-39.68-57.77l-5.18-30L873,450c22.65,8.48,44.13,43.42,44.17,69.13Z"
                  transform="translate(-15.65 4.24)" style="stroke:#000;stroke-miterlimit:10"/>
            <path d="M924.32,462.52l-13.72-5.74c-21.59-8.16-41.22-32-49.42-49.7l-10.5-28.6,14.88,2.8c23.8,4.27,51.22,34.77,55.88,60.05Z"
                  transform="translate(-15.65 4.24)" style="stroke:#000;stroke-miterlimit:10"/>
            <path d="M676.38,92.48,665.85,103c-15.78,16.85-45.28,25.92-64.79,26.75l-30.44-1.2,8.25-12.68c13-20.38,51.68-34.1,76.83-28.78Z"
                  transform="translate(-15.65 4.24)" style="stroke:#000;stroke-miterlimit:10"/>
            <path d="M743.92,129.47l-12.42,8.16c-18.84,13.34-49.57,16.3-68.84,13.19l-29.58-7.29,10.63-10.77c16.85-17.34,57.47-23,81-12.75Z"
                  transform="translate(-15.65 4.24)" style="stroke:#000;stroke-miterlimit:10"/>
            <path d="M805.33,181.41l-13.57,6.08c-20.73,10.16-51.53,8.16-70.06,2l-28-11.92,12.21-8.94c19.41-14.43,60.41-13.54,82,.36Z"
                  transform="translate(-15.65 4.24)" style="stroke:#000;stroke-miterlimit:10"/>
            <path d="M855,243l-14.47,3.38c-22.29,6-52.15-1.77-69.18-11.33l-25.25-17,13.69-6.44c21.8-10.49,61.88-1.83,80.47,15.93Z"
                  transform="translate(-15.65 4.24)" style="stroke:#000;stroke-miterlimit:10"/>
            <path d="M889,311.46,874.11,311c-23.09.16-50-15-64-28.59L790,259.54l14.88-2.74c23.75-4.58,60.31,14,73.75,35.93Z"
                  transform="translate(-15.65 4.24)" style="stroke:#000;stroke-miterlimit:10"/>
            <path d="M914.49,385.62,899.86,383c-22.84-3.32-47.13-22.37-59-37.9l-16.4-25.68,15.12-.47c24.17-.94,57.51,22.95,67.5,46.64Z"
                  transform="translate(-15.65 4.24)" style="stroke:#000;stroke-miterlimit:10"/>
            <path d="M562.68,892.62l14.83-1.07c23-2.46,51.22,9.94,66.54,22l22.27,20.79-14.53,4.22c-23.18,6.93-61.41-7.91-77-28.37Z"
                  transform="translate(-15.65 4.24)" style="stroke:#000;stroke-miterlimit:10"/>
            <path d="M644.25,875.92l14.11-4.66c21.66-8,52.1-2.89,69.91,5.11L755,891.08l-13.06,7.64c-20.78,12.39-61.48,7.34-81.58-8.69Z"
                  transform="translate(-15.65 4.24)" style="stroke:#000;stroke-miterlimit:10"/>
            <path d="M721.71,837.63l13.67-5.84c20.9-9.8,51.66-7.28,70.09-.82l27.82,12.4-12.37,8.72c-19.65,14.1-60.63,12.51-82-1.77Z"
                  transform="translate(-15.65 4.24)" style="stroke:#000;stroke-miterlimit:10"/>
            <path d="M795.66,795.14l11.86-9c17.93-14.54,48.39-19.5,67.83-17.66l30,5.34-9.9,11.44c-15.68,18.41-55.84,26.73-80,18Z"
                  transform="translate(-15.65 4.24)" style="stroke:#000;stroke-miterlimit:10"/>
            <path d="M852.21,737.08l10.2-10.82c15.24-17.34,44.45-27.32,63.92-28.76l30.46.25-7.85,12.93c-12.38,20.78-50.58,35.7-75.89,31.16Z"
                  transform="translate(-15.65 4.24)" style="stroke:#000;stroke-miterlimit:10"/>
            <path d="M895.09,673.6l7.46-12.86c10.87-20.36,37-36.76,55.64-42.62l29.72-6.72-4.69,14.38c-7.3,23.06-41.08,46.33-66.75,47.7Z"
                  transform="translate(-15.65 4.24)" style="stroke:#000;stroke-miterlimit:10"/>
            <path d="M928.7,590.56l5.66-13.75c8-21.64,31.74-41.4,49.4-49.71l28.54-10.66-2.71,14.89c-4.13,23.83-34.47,51.42-59.73,56.23Z"
                  transform="translate(-15.65 4.24)" style="stroke:#000;stroke-miterlimit:10"/>
            <path d="M946.11,516.38l1.78-14.76c2-23,19.54-48.38,34.35-61.1l24.65-17.9,1.37,15.07c2.37,24.07-19.5,58.77-42.55,70.14Z"
                  transform="translate(-15.65 4.24)" style="stroke:#000;stroke-miterlimit:10"/>
            <path d="M659,70.28l-14.85.81c-23,2.06-51-10.83-66.14-23.2L556.05,26.72l14.61-4c23.29-6.53,61.26,9,76.47,29.71Z"
                  transform="translate(-15.65 4.24)" style="stroke:#000;stroke-miterlimit:10"/>
            <path d="M729.59,96.41l-11.83-9C698.9,74.1,685.88,46.11,682.39,26.9l-3-30.31L693.1,3c22,10.11,40.86,46.51,39,72.16Z"
                  transform="translate(-15.65 4.24)" style="stroke:#000;stroke-miterlimit:10"/>
            <path d="M801.61,148.62l-10.9-10.11C773.24,123.42,763,94.3,761.4,74.84V44.38l13,7.74c20.88,12.2,36.13,50.28,31.81,75.62Z"
                  transform="translate(-15.65 4.24)" style="stroke:#000;stroke-miterlimit:10"/>
            <path d="M853.78,207l-8-12.53c-13.09-19-15.63-49.78-12.26-69L841.22,96l10.62,10.78C869,123.85,874.09,164.54,863.5,188Z"
                  transform="translate(-15.65 4.24)" style="stroke:#000;stroke-miterlimit:10"/>
            <path d="M900.1,273.34l-6.91-13.16c-11.45-20.05-11.39-50.91-6.43-69.79l10.14-28.73,9.68,11.63c15.62,18.46,17.32,59.44,4.8,81.89Z"
                  transform="translate(-15.65 4.24)" style="stroke:#000;stroke-miterlimit:10"/>
            <path d="M930.26,350.75l-4.49-14.17c-7.75-21.75-2.27-52.12,5.94-69.84l15-26.49,7.49,13.15c12.13,20.92,6.6,61.56-9.67,81.46Z"
                  transform="translate(-15.65 4.24)" style="stroke:#000;stroke-miterlimit:10"/>
            <path d="M944.86,429.12l-.27-14.86c-1.22-23.06,12.68-50.61,25.59-65.26l22-21.12,3.43,14.74c5.67,23.51-11.21,60.89-32.48,75.34Z"
                  transform="translate(-15.65 4.24)" style="stroke:#000;stroke-miterlimit:10"/>
        </g>
        <g id="Leafs_left">
            <path d="M357.53,940.47l9-11.81c13.37-18.83,41.38-31.78,60.6-35.23l30.32-2.9L451,904.21c-10.16,21.94-46.61,40.74-72.25,38.85Z"
                  transform="translate(-15.65 4.24)" style="stroke:#000;stroke-miterlimit:10"/>
            <path d="M272,899.89l11.57-9.33c17.45-15.11,47.74-21,67.23-19.83L381,875.11l-9.53,11.75c-15.08,18.91-55,28.51-79.41,20.58Z"
                  transform="translate(-15.65 4.24)" style="stroke:#000;stroke-miterlimit:10"/>
            <path d="M187.64,842l13.41-6.41c20.47-10.68,51.31-9.46,70-3.78L299.36,843l-12,9.23c-19,14.92-60.06,15.07-82,1.71Z"
                  transform="translate(-15.65 4.24)" style="stroke:#000;stroke-miterlimit:10"/>
            <path d="M76,701.47l14.78-1.59c22.85-3.28,51.53,8.11,67.27,19.67l23,20-14.37,4.73C143.74,752,105,738.53,88.72,718.63Z"
                  transform="translate(-15.65 4.24)" style="stroke:#000;stroke-miterlimit:10"/>
            <path d="M122,772.2l14.46-3.44c22.26-6.11,52.15,1.6,69.21,11.1L231,796.8l-13.66,6.5c-21.77,10.55-61.88,2-80.53-15.67Z"
                  transform="translate(-15.65 4.24)" style="stroke:#000;stroke-miterlimit:10"/>
            <path d="M16.16,425.41l12.93,7.32C49.57,443.4,66.23,469.38,72.27,488l7,29.64-14.44-4.54C41.72,506,18.13,472.44,16.5,446.78Z"
                  transform="translate(-15.65 4.24)" style="stroke:#000;stroke-miterlimit:10"/>
            <path d="M28.43,330.76l12.22,8.45c19.44,12.47,33.69,39.85,38,58.88L83,428.24l-14-5.82c-22.4-9.12-42.89-44.64-42.2-70.35Z"
                  transform="translate(-15.65 4.24)" style="stroke:#000;stroke-miterlimit:10"/>
            <path d="M72.65,241.55l8.84,12c14.36,18.07,19,48.59,17,68L92.8,351.45l-11.34-10c-18.25-15.88-26.15-56.12-17.2-80.22Z"
                  transform="translate(-15.65 4.24)" style="stroke:#000;stroke-miterlimit:10"/>
            <path d="M123.66,163.64l6.79,13.23c11.25,20.16,10.9,51,5.75,69.86l-10.41,28.63-9.57-11.73c-15.45-18.61-16.75-59.6-4-81.94Z"
                  transform="translate(-15.65 4.24)" style="stroke:#000;stroke-miterlimit:10"/>
            <path d="M188.32,100.3l4.4,14.2c7.6,21.8,1.93,52.14-6.39,69.8l-15.2,26.4-7.4-13.2c-12-21-6.21-61.6,10.19-81.4Z"
                  transform="translate(-15.65 4.24)" style="stroke:#000;stroke-miterlimit:10"/>
            <path d="M268.22,41.36l.6,14.86c1.75,23-11.53,50.88-24.12,65.81l-21.47,21.61L219.47,129c-6.2-23.38,9.84-61.13,30.77-76Z"
                  transform="translate(-15.65 4.24)" style="stroke:#000;stroke-miterlimit:10"/>
            <path d="M359.11-.38l-1.78,14.76c-2,23-19.53,48.38-34.34,61.1l-24.65,17.9L297,78.31c-2.38-24.07,19.49-58.77,42.55-70.14Z"
                  transform="translate(-15.65 4.24)" style="stroke:#000;stroke-miterlimit:10"/>
            <path d="M468.7,22.52l-9,11.82c-13.36,18.82-41.38,31.78-60.59,35.23l-30.33,2.91,6.47-13.68c10.17-21.95,46.62-40.75,72.26-38.86Z"
                  transform="translate(-15.65 4.24)" style="stroke:#000;stroke-miterlimit:10"/>
            <path d="M30.51,613.65l14.85.69c23.09.26,49.69,15.91,63.47,29.74l19.66,23.27-14.93,2.47c-23.83,4.15-60-15.1-73.09-37.26Z"
                  transform="translate(-15.65 4.24)" style="stroke:#000;stroke-miterlimit:10"/>
            <path d="M94.54,596.46l-14-5c-22-7-42.9-29.7-52.05-46.94l-12-28,15,2c24,3,53,32,59.06,56.94Z"
                  transform="translate(-15.65 4.24)" style="stroke:#000;stroke-miterlimit:10"/>
            <path d="M407.33,792.68l14.14,4.58c22.2,6.34,43.73,28.45,53.37,45.43l12.83,27.63-15.05-1.55c-24.08-2.29-53.93-30.41-60.67-55.22Z"
                  transform="translate(-15.65 4.24)" style="stroke:#000;stroke-miterlimit:10"/>
            <path d="M351,770.05l13.08,7.06c20.68,10.26,37.85,35.9,44.27,54.35L416,861l-14.52-4.25c-23.27-6.61-47.53-39.67-49.67-65.29Z"
                  transform="translate(-15.65 4.24)" style="stroke:#000;stroke-miterlimit:10"/>
            <path d="M297.9,736l11.19,9.79c17.9,14.58,29,43.4,31.12,62.8L341.1,839l-13.22-7.36c-21.23-11.6-37.56-49.22-34-74.68Z"
                  transform="translate(-15.65 4.24)" style="stroke:#000;stroke-miterlimit:10"/>
            <path d="M208.71,635.94l7.88,12.6c12.92,19.13,15.18,49.91,11.65,69.12l-8,29.4-10.53-10.87c-17-17.23-21.73-58-10.94-81.3Z"
                  transform="translate(-15.65 4.24)" style="stroke:#000;stroke-miterlimit:10"/>
            <path d="M250.71,692.36l9.63,11.33c15.55,17.06,22.26,47.19,21.55,66.7l-3.6,30.25-12-9.23c-19.29-14.59-29.92-54.21-22.62-78.86Z"
                  transform="translate(-15.65 4.24)" style="stroke:#000;stroke-miterlimit:10"/>
            <path d="M177.49,575l5.06,14c8.62,21.42,4.38,52-3.1,70L165.51,686l-8-12.83c-13-20.41-9.1-61.24,6.35-81.79Z"
                  transform="translate(-15.65 4.24)" style="stroke:#000;stroke-miterlimit:10"/>
            <path d="M126.61,608.31l-1.07-14.83c-2.46-23,10-51.21,22.06-66.53l20.79-22.26,4.22,14.53c6.92,23.18-7.93,61.4-28.4,77Z"
                  transform="translate(-15.65 4.24)" style="stroke:#000;stroke-miterlimit:10"/>
            <path d="M110.52,536.42l.73-14.85c.32-23.08,16-49.64,29.91-63.39l23.32-19.6,2.43,14.94c4.09,23.84-15.26,60-37.45,73Z"
                  transform="translate(-15.65 4.24)" style="stroke:#000;stroke-miterlimit:10"/>
            <path d="M103.06,454.87l3.35-14.49c4.41-22.66,24.58-46,40.67-57.09l26.42-15.16-.25,15.13c-.2,24.19-25.65,56.35-49.79,65.2Z"
                  transform="translate(-15.65 4.24)" style="stroke:#000;stroke-miterlimit:10"/>
            <path d="M112.83,381.06l6.76-13.25c9.76-20.92,35-38.7,53.27-45.55l29.31-8.32-3.91,14.62c-6,23.42-38.52,48.47-64.09,51.22Z"
                  transform="translate(-15.65 4.24)" style="stroke:#000;stroke-miterlimit:10"/>
            <path d="M137.08,304.55l9.24-11.65c13.7-18.57,42-31,61.23-34.1l30.37-2.35L231.2,270c-10.56,21.76-47.35,39.88-72.95,37.51Z"
                  transform="translate(-15.65 4.24)" style="stroke:#000;stroke-miterlimit:10"/>
            <path d="M355.19,85.88,370,84.45c22.89-3,51.44,8.7,67.05,20.43l22.77,20.24-14.43,4.57c-23,7.49-61.58-6.43-77.64-26.5Z"
                  transform="translate(-15.65 4.24)" style="stroke:#000;stroke-miterlimit:10"/>
            <path d="M286.57,125.31l14.32-4c22-7,52.17-.42,69.59,8.42l25.95,15.95-13.41,7c-21.34,11.39-61.75,4.41-81.07-12.55Z"
                  transform="translate(-15.65 4.24)" style="stroke:#000;stroke-miterlimit:10"/>
            <path d="M217,180.74l12.54-8c19-13.07,49.79-15.59,69-12.21L328,168.26l-10.79,10.61c-17.1,17.11-57.79,22.21-81.21,11.6Z"
                  transform="translate(-15.65 4.24)" style="stroke:#000;stroke-miterlimit:10"/>
            <path d="M176.56,241.35l10.57-10.46c15.83-16.8,45.36-25.77,64.87-26.54l30.44,1.3-8.3,12.66c-13.09,20.33-51.78,33.93-76.91,28.52Z"
                  transform="translate(-15.65 4.24)" style="stroke:#000;stroke-miterlimit:10"/>
        </g>
        <g id="Stebel">
            <path d="M511.8,886.67c1.49-2.12,48.27,16.57,77.54,61.39,20,30.66,25.36,63.61,23.22,64.44s-9.84-27.24-32.67-59.57C547.54,907.11,510.43,888.61,511.8,886.67Z"
                  transform="translate(-15.65 4.24)" style="stroke:#000;stroke-miterlimit:10"/>
            <path d="M420.5,1013.5c-2.42-.94,4.51-50.84,41-90,25-26.8,55.68-39.88,57-38s-24.09,16.09-50,46C431.77,973.9,422.71,1014.36,420.5,1013.5Z"
                  transform="translate(-15.65 4.24)" style="stroke:#000;stroke-miterlimit:10"/>
            <path d="M298.5,108.5C296.69,107,88.84,242,82.5,452.5c-6,200,170.79,440.7,430,441,258.14.3,430.68-238,431-429,.39-230.43-249.85-383.14-250-383s248.7,161.61,247,380c-1.35,173.65-161.42,423.35-425,424-262.73.65-424-246.65-427-419C85,263.36,300.38,110.08,298.5,108.5Z"
                  transform="translate(-15.65 4.24)" style="stroke:#000;stroke-miterlimit:10"/>
        </g>
    </symbol>



</svg>