<svg xmlns="http://www.w3.org/2000/svg" viewBox="0 0 1947 794">
    <title>ldpr</title>
    <path d="M49,688l6.83-1.58a58,58,0,0,0,45-56.77L99,124l403,3V805H334l-8-547H284l.94,427.73a115.41,115.41,0,0,1-11.25,50l-1.67,3.5A115.56,115.56,0,0,1,216,794.47h0A115.54,115.54,0,0,1,167.75,805H49Z"
          transform="translate(-49 -124)"/>
    <path d="M1047,658V124H655L643.29,396.6a631.43,631.43,0,0,1-13.52,105.65L595,664H560V918H678l-3-113H963l1,113h116V658Zm-176,3H770l29.78-149.67a632.34,632.34,0,0,0,11.45-93.52L819,253h52Z"
          transform="translate(-49 -124)"/>
    <polygon points="1089 681 1089 0 1497 0 1497 681 1317 681 1317 136 1265 135 1262 681 1089 681"/>
    <path d="M1981.69,194.56l-7.77-12.17a91.25,91.25,0,0,0-40.33-34.51l-37.11-16.23a91.09,91.09,0,0,0-36.56-7.65H1620V805h188V521h89.56a91.17,91.17,0,0,0,77.57-43.24l7.24-11.72a91.17,91.17,0,0,0,13.63-48V243.61A91.28,91.28,0,0,0,1981.69,194.56ZM1857,373.82c0,16.14-13.57,33.37-29,38L1800,415V241l28.49,3.54c16.67,3.78,31.51,15.6,31.51,32.69Z"
          transform="translate(-49 -124)"/>
</svg>