<svg xmlns="http://www.w3.org/2000/svg"><symbol id="logo" viewBox="0 0 836 859.07"><path d="M.57 858.5l65.9-483.25 134.88-118.01-72.79 601.26H.57z"/><path d="M309.69 319.47L237.11 919h-127l65.79-482.49 133.75-117M311 317L175 436l-66 484h129l73-603z" transform="translate(-109 -61)" fill="#fdfeff"/><path d="M115.96 1.5h119.78l599.31 856.01-118.34 1.06L115.96 1.5z"/><path d="M344.48 63l598.61 855-117.13 1L225.92 63h118.56m.52-1H224l601.45 858.07L945 919 345 62z" transform="translate(-109 -61)" fill="#fdfeff"/><path stroke="#fdfeff" stroke-miterlimit="10" d="M344.5 619.5v236l422-636-52 14-370 386z"/><path d="M2.03 402.88L343.5 619.27l-.99 238.24L2.03 402.88z"/><path d="M113.07 465.76L452 680.55 451 917 113.07 465.76M109 462l343 458 1-240-344-218z" transform="translate(-109 -61)" fill="#fdfeff"/><path d="M344.29 134.56L242.52 1.16l520.85 213.71L714 226.49l-369.71-91.93z"/><path d="M353 63.32l517.7 212.42L823 287l-369.42-91.89L353 63.32M350 61l103 135 370 92 51-12L350 61z" transform="translate(-109 -61)" fill="#fdfeff"/></symbol><symbol id="banner" viewBox="0 0 1024 1024"><path d="M512 1009A497.14 497.14 0 0 1 318.55 54.05 497.13 497.13 0 0 1 705.45 970 493.9 493.9 0 0 1 512 1009z" fill="#fcfcfc"/><path d="M512 30a482.13 482.13 0 0 1 187.61 926.13A482.13 482.13 0 0 1 324.39 67.87 478.93 478.93 0 0 1 512 30m0-30C229.23 0 0 229.23 0 512s229.23 512 512 512 512-229.23 512-512S794.77 0 512 0z" fill="#cecece"/><rect id="Desctop" x="190.5" y="243.8" width="643.5" height="400.61" rx="29" fill="#fff" stroke="#000" stroke-miterlimit="10" stroke-width="31"/><path id="lamp2" d="M333.22 264.44v-44a6.81 6.81 0 0 1 2.5-5.27l4.27-3.49a6.8 6.8 0 0 1 4.32-1.54h7.33a6.84 6.84 0 0 1 4.81 2l3.09 3.09a6.8 6.8 0 0 1 2 4.82v44.43a6.81 6.81 0 0 0 6.2 6.78h.2a6.85 6.85 0 0 1 3.94 1.72l3.92 3.53a6.81 6.81 0 0 1 2.26 5.07v7.16a6.85 6.85 0 0 1-1.49 4.25l-2.76 3.44a6.8 6.8 0 0 1-5.32 2.56H327.4a6.81 6.81 0 0 1-4.82-2l-3.09-3.08a6.8 6.8 0 0 1-2-4.82v-7.73a6.78 6.78 0 0 1 2-4.81l3.34-3.34a6.83 6.83 0 0 1 4.2-2 6.81 6.81 0 0 0 6.19-6.77z"/><path id="lamp1" d="M502.06 264.44v-44a6.81 6.81 0 0 1 2.5-5.27l4.27-3.49a6.79 6.79 0 0 1 4.31-1.54h7.33a6.84 6.84 0 0 1 4.82 2l3.08 3.09a6.81 6.81 0 0 1 2 4.82v44.43a6.81 6.81 0 0 0 6.19 6.78h.2a6.79 6.79 0 0 1 3.94 1.74l3.93 3.53a6.84 6.84 0 0 1 2.25 5.07v7.16a6.79 6.79 0 0 1-1.49 4.25l-2.75 3.44a6.81 6.81 0 0 1-5.32 2.56h-41.09a6.81 6.81 0 0 1-4.82-2l-3.08-3.08a6.81 6.81 0 0 1-2-4.82v-7.73a6.79 6.79 0 0 1 2-4.81l3.34-3.34a6.8 6.8 0 0 1 4.2-2 6.81 6.81 0 0 0 6.19-6.79z"/><path id="lamp" d="M676.82 264.44v-44a6.81 6.81 0 0 1 2.5-5.27l4.27-3.49a6.77 6.77 0 0 1 4.31-1.54h7.33a6.84 6.84 0 0 1 4.82 2l3.08 3.09a6.81 6.81 0 0 1 2 4.82v44.43a6.81 6.81 0 0 0 6.19 6.78h.2a6.79 6.79 0 0 1 3.94 1.72l3.93 3.53a6.84 6.84 0 0 1 2.25 5.07v7.16a6.79 6.79 0 0 1-1.49 4.25l-2.75 3.44a6.81 6.81 0 0 1-5.32 2.56H671a6.81 6.81 0 0 1-4.82-2l-3.08-3.08a6.81 6.81 0 0 1-2-4.82v-7.73a6.79 6.79 0 0 1 2-4.81l3.34-3.34a6.8 6.8 0 0 1 4.19-2 6.81 6.81 0 0 0 6.19-6.77z"/><path id="Leg_right" d="M560.38 643.3H590v225.11h-29.62z"/><path id="Leg_left" d="M444.86 641.08h29.62v225.11h-29.62z"/><rect id="Land" x="401.17" y="851.39" width="234" height="31.1" rx="15.55"/></symbol><symbol id="print" viewBox="0 0 1024 1024"><g id="BG"><path d="M514 1009A497.14 497.14 0 0 1 320.55 54.05 497.13 497.13 0 0 1 707.45 970 493.9 493.9 0 0 1 514 1009z" transform="translate(-2)" fill="#fff"/><path d="M514 30a482.13 482.13 0 0 1 187.61 926.13A482.13 482.13 0 0 1 326.39 67.87 478.93 478.93 0 0 1 514 30m0-30C231.23 0 2 229.23 2 512s229.23 512 512 512 512-229.23 512-512S796.77 0 514 0z" transform="translate(-2)" fill="#cecece"/></g><rect x="188.5" y="358.37" width="646.34" height="345.75" rx="65.25" fill="#fff" stroke="#050505" stroke-miterlimit="10" stroke-width="19"/><rect x="263.79" y="595.48" width="483.97" height="45.7" rx="22.85"/><path fill="#fff" stroke="#000" stroke-miterlimit="10" stroke-width="16" d="M307.62 602.97h399.21V809H307.62z"/><path d="M314.22 608.97h386.36v49.45H314.22z"/><path d="M389.06 657.66h235.89v15.73H389.06zm0 64.43h235.89v15.73H389.06z"/><path fill="#020202" d="M298.26 324.28h415.8v31.47h-415.8z"/><path fill="#fff" stroke="#000" stroke-miterlimit="10" stroke-width="19" d="M322.6 235.5h367.1v125.86H322.6z"/><path d="M322.53 363.61H691v103.47a40.37 40.37 0 0 1-40.37 40.37h-288a40.12 40.12 0 0 1-40.12-40.12V363.61h.02z" stroke="#000" stroke-miterlimit="10" stroke-width="19"/><circle cx="766.12" cy="451.26" r="16.86"/></symbol><symbol id="auto" viewBox="0 0 1024 1024"><g id="BG"><path d="M512.5 1009A496.13 496.13 0 0 1 319.44 56a496.13 496.13 0 0 1 386.12 914 492.86 492.86 0 0 1-193.06 39z" transform="translate(-1.5 -2)" fill="#fff"/><path d="M512.5 32a481.13 481.13 0 0 1 187.22 924.21A481.13 481.13 0 0 1 325.28 69.79 477.85 477.85 0 0 1 512.5 32m0-30C230.28 2 1.5 230.78 1.5 513s228.78 511 511 511 511-228.78 511-511S794.72 2 512.5 2z" transform="translate(-1.5 -2)" fill="#cecece"/></g><path id="Car_body" d="M231.72 726.29l1-63.78c0-2.5-3.63-12.32-5.12-14.33l-21.5-24.57c-1.38-1.86-6.14-7.17-7.33-14.82l-3.93-50.7a37.67 37.67 0 0 1 4.16-20.48l14.54-25.24a11.62 11.62 0 0 0-8.56-17.05l-3.56-.51a11.63 11.63 0 0 1-9.85-9.77l-12-56c-1-6.85 6.39-13 13.31-13.31l61.58.27a11.61 11.61 0 0 0 10-6.61L285 351.28c5.12-12.28 54.64-48 57.33-49.14l46.07-16.38c8.19-4.09 31.74-8.19 58.36-10.24l127-1c24.57 0 81.9 16.38 91.11 21.5l47.92 24.07c14.54 7.67 32.63 46 34 48.62l15.26 39a11.65 11.65 0 0 0 10 6.24l58.7-.19c6.75.18 15 7.61 14.33 14.34l-7.17 56.31c-.6 5.93-8.63 12.28-14.59 12.28h0a11.62 11.62 0 0 0-10.3 17l13.63 22.93c.87 1.66 3.07 13.48 3.07 15.35l-1 43c0 9.22-5 21.68-6.14 23.55L803 648.18c-1.11 1.73-6.15 9.21-6.15 18.43l-2.85 62.8a11.63 11.63 0 0 1-3.68 8l-8.53 8a11.64 11.64 0 0 1-7.93 3.12h-70.34a11.63 11.63 0 0 1-7.06-2.39l-9.72-7.43a11.63 11.63 0 0 1-4.56-9.23V709a11.63 11.63 0 0 0-11.66-11.62l-311 .95a11.63 11.63 0 0 0-11.48 10l-3.14 22.77a11.64 11.64 0 0 1-3.6 6.92l-8 7.39a11.64 11.64 0 0 1-7.91 3.1h-71.5a11.6 11.6 0 0 1-8.21-3.4l-10.6-10.6a11.61 11.61 0 0 1-3.36-8.22z" transform="translate(-1.5 -2)" stroke="#000" stroke-miterlimit="10"/><circle cx="323.38" cy="574.52" r="50.17" fill="#fcfcfc" stroke="#000" stroke-miterlimit="10"/><circle cx="703.2" cy="574.52" r="50.17" fill="#fcfcfc" stroke="#000" stroke-miterlimit="10"/><path d="M721.08 439.33H306.45l20.29-44.75c9.3-20.53 13.5-27.94 37-45.34l33.79-13.31c29.69-8.19 47-8.19 72.84-8.19H561c13.85 0 45.54 4.08 58.78 8.19l32.76 11.26c32.76 16.38 41.32 30.51 58.37 62.95z" transform="translate(-1.5 -2)" fill="#fcfcfc" stroke="#000" stroke-miterlimit="10"/></symbol><symbol id="human" viewBox="0 0 1024 1024"><g id="BG"><path d="M511.5 1009.5A497.14 497.14 0 0 1 318.05 54.55 497.13 497.13 0 0 1 705 970.45a493.9 493.9 0 0 1-193.5 39.05z" transform="translate(.5)" fill="#fff"/><path d="M511.5 30.5a482.13 482.13 0 0 1 187.61 926.13A482.13 482.13 0 0 1 323.89 68.37 478.93 478.93 0 0 1 511.5 30.5m0-30C228.73.5-.5 229.73-.5 512.5s229.23 512 512 512 512-229.23 512-512S794.27.5 511.5.5z" transform="translate(.5)" fill="#cecece"/></g><circle id="Head" cx="512.5" cy="201" r="83.5" stroke="#000" stroke-miterlimit="10"/><path id="Leg" d="M600 911.5H437l-42-321 243-1-38 322z"/><path id="Body" d="M633.44 637H395.56A38.57 38.57 0 0 1 357 598.44l1-207.88c0-21.29 13-59.56 79-80.56h163c56 20 73 59.27 73 80.56l-1 207.88A38.57 38.57 0 0 1 633.44 637z" transform="translate(.5)"/></symbol><symbol id="infoStand" viewBox="0 0 1024 1024"><g id="BG"><path d="M512 1009A497.14 497.14 0 0 1 318.55 54.05 497.13 497.13 0 0 1 705.45 970 493.9 493.9 0 0 1 512 1009z" fill="#fff"/><path d="M512 30a482.13 482.13 0 0 1 187.61 926.13A482.13 482.13 0 0 1 324.39 67.87 478.93 478.93 0 0 1 512 30m0-30C229.23 0 0 229.23 0 512s229.23 512 512 512 512-229.23 512-512S794.77 0 512 0z" fill="#cecece"/></g><rect x="200.5" y="200.5" width="622.5" height="622.5" rx="79.5" fill="#fff" stroke="#000" stroke-miterlimit="10" stroke-width="30"/><path fill="#fcfcfc" stroke="#000" stroke-miterlimit="10" stroke-width="14" d="M487.03 698.54h-191.4v-239.6H435.4l51.63 51.44v188.16zm244.96 0h-191.4v-239.6h139.77l51.63 51.44v188.16z"/><circle cx="277.44" cy="269.44" r="14.44"/><circle cx="763.62" cy="269.44" r="14.44"/><circle cx="277.44" cy="754.84" r="14.44"/><circle cx="763.62" cy="754.84" r="14.44"/><text transform="matrix(1.09 0 0 1 305 408.95)" font-size="138.517" font-family="MyriadPro-Regular,Myriad Pro">ИНФО</text></symbol><symbol id="plotter" viewBox="0 0 1024 1024"><g id="Layer_6"><g id="BG"><path d="M512.5 1010A497.63 497.63 0 0 1 318.85 54.09a497.63 497.63 0 0 1 387.29 916.82A494.29 494.29 0 0 1 512.5 1010z" fill="#fff"/><path d="M512.5 30a482.63 482.63 0 0 1 187.8 927.09A482.63 482.63 0 0 1 324.7 67.9 479.45 479.45 0 0 1 512.5 30m0-30C229.45 0 0 229.45 0 512.5S229.45 1025 512.5 1025 1025 795.55 1025 512.5 795.55 0 512.5 0z" fill="#cecece"/></g></g><g id="Niz" fill="#fff" stroke="#000" stroke-miterlimit="10"><path d="M249.93 417.14c-34.23 29.59-34.93 81.13-6.76 109.07 29.19 29 83.21 26.43 111.61-11" stroke-width="8"/><path stroke-width="7" d="M329.41 463.64h383.03v77.79H329.41zm64.1 77.79h255.67a31.13 31.13 0 0 1 31.13 31.13v18.08a31.13 31.13 0 0 1-31.12 31.13H393.51a31.13 31.13 0 0 1-31.12-31.12v-18.1a31.12 31.12 0 0 1 31.12-31.12z"/><path stroke-width="7" d="M523.04 756.2L416.5 621.75h208.85L523.04 756.2zm-27.9-34.67a30.18 30.18 0 0 1 52.42 0m-88.78-45.66l123.45-.85"/><path stroke-width="8" d="M365.35 562.99h310.31m-310.31 18.6l310.31-.84m-310.31 19.44h310.31"/></g><g id="Seredina" fill="#fff" stroke="#000" stroke-miterlimit="10"><path d="M214.84 338.08c-36.16 29.64-36.69 83.52-6.76 111.61s83.38 24.2 110.76-13.53" stroke-width="8"/><path d="M291.53 360.48h460.33v61.16a42 42 0 0 1-42 42H331.4a39.87 39.87 0 0 1-39.87-39.87v-63.29h0z" stroke-width="7"/><path stroke-width="8" d="M291.78 383.74h456.59m-456.59 19.44h456.59m-456.59 18.61h456.59"/></g><g id="Verh" fill="#fff" stroke="#000" stroke-miterlimit="10"><path d="M257.54 234.5h527.61v84a42 42 0 0 1-42 42H297.42a39.88 39.88 0 0 1-39.87-39.87V234.5h-.01z" stroke-width="7"/><path stroke-width="8" d="M257.12 252.68h526.77m-526.77 19.45h526.77m-526.77 18.6h526.77m-526.77 18.6h526.77"/></g><path d="M205.54 772.68l21.14 3.38m32.97 4.23l29.6 5.08m30.44 2.53l24.52 4.23m32.97 5.07l28.75 4.23m31.29 4.23l27.05 4.23m113.31-1.69l29.59-4.23m29.59-4.23l30.44-4.23m28.75-5.07l27.9-4.23m32.98-3.38l27.9-5.07m30.44-3.39l22.83-4.22m-53.27 7.61h0m-542.83 46.5l20.29-.85m32.98.85h27.9m32.13 0h28.75m30.44 0h29.59m29.59 0h29.6m38.05 0h27.05m31.29 0H630m30.44 0h28.75m29.59 0h30.44m30.44 0h21.14" id="Strujki" stroke="#554682" stroke-miterlimit="10" stroke-width="8"/></symbol><symbol id="streetLine" viewBox="0 0 1024 1024"><g id="Layer_3"><path d="M512 1009A497.14 497.14 0 0 1 318.55 54.05 497.13 497.13 0 0 1 705.45 970 493.9 493.9 0 0 1 512 1009z" fill="#fff"/><path d="M512 30a482.13 482.13 0 0 1 187.61 926.13A482.13 482.13 0 0 1 324.39 67.87 478.93 478.93 0 0 1 512 30m0-30C229.23 0 0 229.23 0 512s229.23 512 512 512 512-229.23 512-512S794.77 0 512 0z" fill="#cecece"/></g><path d="M230.3 781.58l-3.4-1.7c-2-1.31-3.4-4.86-3.4-7.28V717l69.31-532.23a64.89 64.89 0 0 1 11.33-29l1-1.41a64.92 64.92 0 0 1 26.15-21.65h0a65 65 0 0 1 25.25-5.79l284.19-7a51.37 51.37 0 0 1 25.64 6.08h0a51.46 51.46 0 0 1 16.92 14.64l5.42 7.3a51.44 51.44 0 0 1 9.38 21.91l106.7 619.36v47a11.68 11.68 0 0 1-3.41 8.24h0a11.67 11.67 0 0 1-13.45 2.18l-1.35-.67a11.65 11.65 0 0 1-6.44-10.42v-19.12l-354.38 39.09V876a15.08 15.08 0 0 1-4 10.23h0a11.62 11.62 0 0 1-12.95 2.87l-3.47-1.43a7.6 7.6 0 0 1-4.62-5.89L379 739.09l-129.16 12.74.62 18A10.78 10.78 0 0 1 246 779l-2.95 2.56c-2.05 1.52-10.6 1.44-12.75.02z" stroke="#000" stroke-miterlimit="10"/><path fill="#fffffd" stroke="#000" stroke-miterlimit="10" d="M308.48 282.73l-58.64 445.31 124.08-14.45-65.44-430.86z"/><path d="M777.92 792.49l-356 38.8-98.27-623.37c-4.45-32.28 8.93-59.27 41.49-60.36l260-5.91c31.32-1 48.08 17.75 53.74 48.57z" fill="#fffffd"/><path d="M733.83 766.09L450 797.3l-88.58-563.74c-3.6-29.45 7.22-54.09 33.55-55.08l215.32-6.24c25.32-1 38.87 16.2 43.45 44.32z" fill="#fcfcf7" stroke="#020202" stroke-miterlimit="10" stroke-width="20"/><path d="M628.45 393.63l-190.37 11.9a15.34 15.34 0 0 1-15.29-15.3L404.94 268.7a15.34 15.34 0 0 1 15.3-15.29l189.51-8.5a15.34 15.34 0 0 1 15.3 15.29l18.69 118.13a15.34 15.34 0 0 1-15.29 15.3z" fill="#fcfcf7" stroke="#020202" stroke-miterlimit="10" stroke-width="20"/><path d="M646.24 462.73l-194.8 14.15c-4.66.44-8.89-3.09-9.89-8.25l-.45-2.35c-1.2-6.21 2.73-12.19 8.34-12.72l195-14c5-.47 9.37 3.55 10 9.12l.25 2.21c.71 5.95-3.15 11.34-8.45 11.84zm10.2 50.99l-196.5 14.15c-4.66.44-8.89-3.09-9.89-8.25l-.45-2.35c-1.2-6.21 2.73-12.19 8.34-12.72l196.7-14c5-.47 9.37 3.55 10 9.12l.26 2.21c.7 5.95-3.16 11.34-8.46 11.84zm11.05 52.69l-194.8 15.84c-4.67.45-8.9-3.08-9.89-8.24l-.45-2.35c-1.2-6.21 2.72-12.19 8.34-12.72l195-15.7c5-.47 9.38 3.55 10 9.12l.26 2.21c.7 5.95-3.16 11.34-8.46 11.84z"/></symbol><symbol id="rollUp" viewBox="0 0 1024 1024"><g id="BG"><path d="M512 1009A497.14 497.14 0 0 1 318.55 54.05 497.13 497.13 0 0 1 705.45 970 493.9 493.9 0 0 1 512 1009z" fill="#fff"/><path d="M512 30a482.13 482.13 0 0 1 187.61 926.13A482.13 482.13 0 0 1 324.39 67.87 478.93 478.93 0 0 1 512 30m0-30C229.23 0 0 229.23 0 512s229.23 512 512 512 512-229.23 512-512S794.77 0 512 0z" fill="#cecece"/></g><path fill="#fff" stroke="#000" stroke-miterlimit="10" stroke-width="20" d="M327.06 140h369.88v663.23H327.06z"/><path fill="none" stroke="#000" stroke-miterlimit="10" stroke-width="20" d="M331.05 166.31h363.5"/><path fill="#fff" stroke="#000" stroke-miterlimit="10" stroke-width="20" d="M288 780.91h448v24.71H288zm41.45 29.5h62.18v23.12h-62.18zm303.72 0h62.18v23.12h-62.18z"/></symbol><symbol id="cards" viewBox="0 0 1024 1024"><g id="BG"><path d="M512 1008A496.14 496.14 0 0 1 318.94 55a496.13 496.13 0 0 1 386.12 914A492.86 492.86 0 0 1 512 1008z" transform="translate(-1 -1)" fill="#fff"/><path d="M512 31a481.13 481.13 0 0 1 187.22 924.21A481.13 481.13 0 0 1 324.78 68.79 477.85 477.85 0 0 1 512 31m0-30C229.78 1 1 229.78 1 512s228.78 511 511 511 511-228.78 511-511S794.22 1 512 1z" transform="translate(-1 -1)" fill="#cecece"/></g><rect x="156.5" y="265.54" width="708.5" height="491.17" rx="63.87" fill="#fff" stroke="#000" stroke-miterlimit="10" stroke-width="29"/><path stroke="#000" stroke-miterlimit="10" d="M169.73 382.9H852.6v36.38H169.73zm0 81.02H852.6v36.38H169.73z"/><rect x="501.24" y="544.94" width="155.42" height="36.38" rx="12.25" stroke="#000" stroke-miterlimit="10"/><rect x="236.69" y="544.94" width="202.55" height="36.38" rx="12.25" stroke="#000" stroke-miterlimit="10"/><rect x="236.69" y="628.44" width="229.83" height="36.38" rx="12.25" stroke="#000" stroke-miterlimit="10"/></symbol><symbol id="arrow" viewBox="0 0 984 991.55"><path d="M788.59 544.19L745.13 586a44.84 44.84 0 0 1-62.74-.53L231.93 136.8a44.84 44.84 0 0 1 .54-64.06L276.81 30a44.84 44.84 0 0 1 62.81.59l449.57 449.6a44.83 44.83 0 0 1-.6 64z" transform="translate(-20 -16.99)" fill="#020202" stroke="#000" stroke-miterlimit="10"/><path d="M748.77 439.9l41.68 43.62a44.84 44.84 0 0 1-.78 62.74L339.22 995a44.85 44.85 0 0 1-64.06-.78l-42.54-44.51a44.83 44.83 0 0 1 .83-62.81l451.32-447.85a44.83 44.83 0 0 1 64 .85z" transform="translate(-20 -16.99)" fill="#020202" stroke="#000" stroke-miterlimit="10"/></symbol><symbol id="hamburger" viewBox="0 0 1024.5 515.58"><rect x=".5" y=".5" width="1023.5" height="62.2" rx="14" stroke="#000" stroke-miterlimit="10"/><rect x=".5" y="226.69" width="1023.5" height="62.2" rx="14" stroke="#000" stroke-miterlimit="10"/><rect x=".5" y="452.88" width="1023.5" height="62.2" rx="14" stroke="#000" stroke-miterlimit="10"/></symbol><symbol id="close" viewBox="0 0 1024.98 1024.98"><path transform="rotate(45 511.4 512.419)" fill="#020202" stroke="#000" stroke-miterlimit="10" d="M-65.31 365.46h1155.06v292.48H-65.31z"/><path transform="rotate(135 512.191 512.15)" fill="#020202" stroke="#000" stroke-miterlimit="10" d="M-65.31 365.46h1155.06v292.48H-65.31z"/></symbol><symbol id="callMe" viewBox="0 0 1024 1024"><circle cx="512" cy="512" r="512" fill="currentColor"/><path d="M257.5 806.5l49 19c87 16 150.69-22.71 188-45l85-59c60-39 183-186 206-237l21-45c19-44 25.61-110 15.42-153.58L806.5 257.5l-157 157 4.23 7.33a32.72 32.72 0 0 1-2.14 35.93l-60.5 80.89A229.61 229.61 0 0 1 548 582.52L455.89 654a33.45 33.45 0 0 1-36.66 2.87l-9.73-5.37z" transform="translate(-.5 -.5)" fill="#fff"/><path d="M210.89 644.72h170.85a19.8 19.8 0 0 1 19.8 19.8v65.76H184.46v-59.14a26.43 26.43 0 0 1 26.43-26.42z" transform="rotate(-45 292.15 687.858)" fill="#fff"/><path d="M602.89 251.72h170.85a19.8 19.8 0 0 1 19.8 19.8v65.76H576.46v-59.14a26.43 26.43 0 0 1 26.43-26.42z" transform="rotate(-45 684.153 294.855)" fill="#fff"/></symbol><symbol id="clock" viewBox="0 0 1021.5 1021.5"><circle cx="510.75" cy="510.75" r="510.25" fill="#020202" stroke="#000" stroke-miterlimit="10"/><circle cx="510.75" cy="510.75" r="448.84" fill="#fff" stroke="#000" stroke-miterlimit="10"/><path d="M481.51 241.74h57.02v335.54h-57.02z"/><path transform="rotate(-45 596.273 657.856)" d="M570.47 520.43h57.02v268.61h-57.02z"/></symbol><symbol id="male" viewBox="0 0 1015.19 713.96"><rect x="21.25" y="42.15" width="972.36" height="630.76" rx="18" fill="#fff" stroke="#000" stroke-miterlimit="10" stroke-width="42"/><path d="M545.19 276.86l430.2 328.8c40 30.54 15.38 88.3-37.6 88.3H77.4c-53 0-77.57-57.76-37.6-88.3L470 276.86c21.56-16.47 53.63-16.47 75.19 0z" fill="#fff" stroke="#000" stroke-miterlimit="10" stroke-width="40"/><path d="M470 437.1L39.8 108.3C-.2 77.75 24.42 20 77.4 20h860.39c53 0 77.57 57.75 37.6 88.3l-430.2 328.8c-21.56 16.47-53.63 16.47-75.19 0z" fill="#fff" stroke="#000" stroke-miterlimit="10" stroke-width="40"/></symbol><symbol id="map_address" viewBox="0 0 802.15 1025.32"><path d="M913 402c0 245-254 528-382 618-10.35 7.28-20.77 9.12-34 1-132-81-379-367-386-619C104.85 180.62 290.53 1 512 1s401 179.53 401 401z" transform="translate(-110.85 -1)" fill="#020202"/><circle cx="401.15" cy="401.5" r="269.5" fill="#fff"/><circle cx="401.15" cy="400" r="155"/></symbol><symbol id="phone" viewBox="0 0 1019.28 1023.77"><path d="M106.74 987.19l78.79 30.55c139.9 25.73 242.31-36.51 302.31-72.36l136.68-94.87C721 787.8 918.79 551.42 955.77 469.41l33.77-72.36c30.55-70.75 41.18-176.91 24.79-246.95l-24.79-45.71-252.46 252.46 6.8 11.79a52.58 52.58 0 0 1-3.44 57.78l-97.29 130.07a369 369 0 0 1-69.3 70.51L425.76 742a53.78 53.78 0 0 1-59 4.6l-15.6-8.6z" transform="translate(-2.72 -.03)"/><path d="M15.72 727h302.84a19.8 19.8 0 0 1 19.8 19.8v117.83H-10.7V753.47A26.43 26.43 0 0 1 15.72 727z" transform="rotate(-45 162.42 799.104)"/><path d="M646.06 95.1H948.9a19.8 19.8 0 0 1 19.8 19.8v117.78H619.64V121.52a26.43 26.43 0 0 1 26.42-26.42z" transform="rotate(-45 792.768 167.155)"/></symbol><symbol id="icq" viewBox="0 0 1020.18 1008.55"><circle cx="512.91" cy="504.04" r="167" fill="#fff" stroke="#000" stroke-miterlimit="10" stroke-width="100"/><path d="M755.3 201.13c-20.14 70.51-112.39 173.91-184.39 173.91-7.1 0-26.14-6.48-33-9-60-22-85.53-167.56-63.39-245.09a146.002 146.002 0 0 1 280.78 80.18zM230.12 798.4c24.66-69.05 123.42-166.25 195.27-161.58 7.08.46 25.66 8.16 32.35 11.12 58.44 25.84 74.48 172.75 47.36 248.69a146.009 146.009 0 1 1-275-98.23zm-14.39-551.31c68 27.47 161.07 130.12 153.47 201.72-.75 7.05-9.2 25.3-12.43 31.86-28.21 57.37-175.65 67.37-250.41 37.17a146.003 146.003 0 1 1 109.37-270.75zm605.58 531.52c-70.82-19-175.69-109.57-176.85-181.57-.11-7.1 6.06-26.24 8.47-33.14 21-60.35 166.17-88.21 244.05-67.31a146 146 0 0 1-75.67 282z" fill="#fff" stroke="#000" stroke-miterlimit="10" stroke-width="30"/><path d="M839.21 456.41c-46.86 30-147.78 47.89-184.73 18-3.64-2.95-10.05-14.38-12.27-18.6-19.4-36.9 42.92-126.69 94.45-159.66s116.25-23.84 144.59 20.42 9.5 106.87-42.04 139.84zM555.55 821.89c-23.1-50.61-26.64-153 8.17-185.42 3.43-3.19 15.66-7.93 20.15-9.54 39.26-14 119.39 60.3 144.79 116s7.25 118.42-40.56 140.23-107.19-5.61-132.55-61.27zm-118.9-653.52c27.63 48.29 42.12 149 12.26 183.41-2.95 3.39-14.15 8.92-18.28 10.82-36.12 16.57-121-51.1-151.36-104.21s-19.77-116.3 23.69-141.16 103.31-1.97 133.69 51.14z" fill="#fff" stroke="#000" stroke-miterlimit="10" stroke-width="30"/><path d="M166.91 563.21c48.4-27.43 149.22-41.53 183.47-11.53 3.37 3 8.86 14.18 10.74 18.32 16.43 36.18-51.57 120.78-104.79 150.95s-116.42 19.31-141.08-24.24-1.56-103.33 51.66-133.5z" stroke="#000" stroke-miterlimit="10" stroke-width="30"/></symbol><symbol id="instagram" viewBox="0 0 1024.5 1024"><rect x=".5" width="1024" height="1024" rx="117.5"/><path fill="#fcfcfc" d="M0 425.5h1024v86H0z"/><circle cx="512" cy="511.5" r="301" fill="#fcfcfc"/><circle cx="512" cy="511.5" r="214"/><rect x="770" y="85.5" width="168" height="169.01" rx="27.56" fill="#fcfcfc"/></symbol><symbol id="skype" viewBox="0 0 1011.58 1020.96"><path d="M359.7 67.07l59.5 33.5 85-12c173-12 313.5 75.5 377.5 179.5 0 0 109 158 72.5 290.5l-24 67 33 97.06c20.5 80.44 1.87 134-38.5 182.44 0 0-102 102-225.5 69.5l-90-39-81 23c-112 16-205.81-32.74-271.07-81l-24.24-17.93C159.2 805.15 91.7 691.07 91.7 691.07c-53.36-73.15-68-177-31.72-243l23.72-35-27-93c-24-83-9.81-135.52 9.5-169.5 0 0 97.5-176.5 293.5-83.5z" fill="#fff" stroke="#000" stroke-miterlimit="10" stroke-width="80" id="Layer_2"/><path d="M695.7 344.07c-38.2-105.54-118.55-124.49-219-122-84.43 2.09-192.78 68.16-164 166 40 136 373 58 408 238 15.71 80.82-78.25 170.32-210 167-91.28-2.3-201-48-221-143" fill="none" stroke="#000" stroke-linecap="round" stroke-miterlimit="10" stroke-width="120" id="Layer_3"/></symbol><symbol id="twitter" viewBox="0 0 900.85 754"><path d="M208 190l69 65c22.42 18.43 63.85 47.76 91 58l77 24 20-64c33-71 95-97 95-97 34-27 113-27 113-27 31.39 0 59.38 9.12 88 22l37 21 70-31c14.88-6.09 37 2 37 2 28 9 34.37 33.4 37 48l-5 20 21 23c10.47 18.85 13 45-30 95l-46 43v49c-1.31 15.9-13 59-19 85l-21 61c-20.56 46.45-43.51 92.1-77.83 129.54l-24.62 26.85C695.67 791.27 641 836 579 859l-67 24c-10.06 3.2-64.48 14.06-75 15l-77 5c-57 0-120.08-12-173-32l-58-26c-50-22-59-45-59-45-12-20-6-56 9-67 0 0 21-21 96-17l44-5-25-24c-17.39-21.82-35.41-53-42-80.17V581l-24-30c-19-32-44-101-31-136l12-21-13-52.25C88 309 108 237 108 237c19-48 38.25-55 58-60 0 0 29-3 42 13z" transform="translate(-63.62 -149)" fill="#020202" id="Layer_2"/><path d="M883 219l-48 22.15a51.49 51.49 0 0 1-8.25 3L783 256l-39.84-29.31a143 143 0 0 0-74.1-20.69H658a143.1 143.1 0 0 0-80.35 24.7l-10.94 7.43a143.08 143.08 0 0 0-50.27 60.05A143.09 143.09 0 0 0 504 356.46l3 45.54-36-2c-91-10-172.49-52.06-221-91l-76-72-7 13c-24 46-18 120 23.19 169.06L222 451l-36-6-36-14 2 22c9 52 32 92 90 125l37 12-18.09 3.29a128.72 128.72 0 0 1-30 1.89L209 594l9.6 26.53C245.5 659.17 274 691 330 702l27 3-65 40.33c-28.36 14.3-53 18.67-91 24.9l-78 .77 66.78 38.66a303.58 303.58 0 0 0 61.31 21.78C317.3 847 402.37 848.33 469 833.08A446.45 446.45 0 0 0 669.56 728.4l3.47-3.15A446.46 446.46 0 0 0 784.3 568.19l5.38-12.77a446.47 446.47 0 0 0 32.94-129.84L825 365l38.15-33.15a135.9 135.9 0 0 0 16.21-17.11L904 282l-40.66 13.55a75 75 0 0 1-8.82 2.37L815 306l31.82-29a100.89 100.89 0 0 0 22.61-30.2z" transform="translate(-63.62 -149)" fill="#fcfafa" id="Layer_3"/></symbol><symbol id="vk" viewBox="0 0 1023.72 607.79"><path d="M2.76 239.48A20.9 20.9 0 0 0 4 243.27l94.43 222.87C142 556 241.64 662.47 252.75 675.93a21.52 21.52 0 0 0 1.78 1.92c78 74 132.64 106.92 239.43 118.78a21.8 21.8 0 0 0 2.91.13l56.07-1.37c28.08-1.81 46.27-16.79 45.2-45.68V641.63c0-31.77 39.09-35 63.45-15.59.51.4 1 .79 1.56 1.14l33.44 21.94c20.33 13.92 40.3 35 43.84 38.62L831 780.31c.28.29.57.56.87.84 7.06 6.44 17.12 15.64 38.08 15.64H985.5c27.88 0 46.17-28.57 35.34-53.6a21.32 21.32 0 0 0-2.39-4.14L951 646c-2.43-3.3-32.64-37.64-33-38l-60.4-60c-.34-.34-.67-.68-1-1-19.51-22-21.93-36.51-6-61.53L964.49 309.9a22.26 22.26 0 0 0 1.24-2.18l33.7-68.43a22.11 22.11 0 0 0 1.7-4.8C1010 195.14 983.2 189 961.75 189H854.93c-15.45 0-34 11.14-41.3 24.77L756.51 324.9c-5.32 10-45.61 76.38-77.64 112.88-.32.37-.65.72-1 1.06l-36.4 36.4a21.14 21.14 0 0 1-4 3.13c-19.17 11.67-36.86 4.85-39.28-17.69-.06-.63-.09-1.28-.1-1.92l-2.94-241.17c-.1-11.69-8.55-28.59-20.25-28.59h-189c-8.24 0-19.91 13.91-19.91 13.91-3.06 6.43-3.17 19.73.47 25.85l28.42 38.35a87.49 87.49 0 0 1 10.7 36.39l.42 207.43c-1 19.16-35.36 22.48-48 8.07l-12.39-15.4C325.28 477.92 285 422 262.14 374.12l-68.48-161.58c-4.88-11.2-22.88-23.54-35.1-23.54H49.71c-32.2 0-57.64 0-46.95 50.48z" transform="translate(-.28 -189)"/></symbol></svg>