<svg xmlns="http://www.w3.org/2000/svg"><symbol id="logo" viewBox="0 0 836 859.07"><path d="M.57 858.5l65.9-483.25 134.88-118.01-72.79 601.26H.57z"/><path d="M309.69 319.47L237.11 919h-127l65.79-482.49 133.75-117M311 317L175 436l-66 484h129l73-603z" transform="translate(-109 -61)" fill="#fdfeff"/><path d="M115.96 1.5h119.78l599.31 856.01-118.34 1.06L115.96 1.5z"/><path d="M344.48 63l598.61 855-117.13 1L225.92 63h118.56m.52-1H224l601.45 858.07L945 919 345 62z" transform="translate(-109 -61)" fill="#fdfeff"/><path stroke="#fdfeff" stroke-miterlimit="10" d="M344.5 619.5v236l422-636-52 14-370 386z"/><path d="M2.03 402.88L343.5 619.27l-.99 238.24L2.03 402.88z"/><path d="M113.07 465.76L452 680.55 451 917 113.07 465.76M109 462l343 458 1-240-344-218z" transform="translate(-109 -61)" fill="#fdfeff"/><path d="M344.29 134.56L242.52 1.16l520.85 213.71L714 226.49l-369.71-91.93z"/><path d="M353 63.32l517.7 212.42L823 287l-369.42-91.89L353 63.32M350 61l103 135 370 92 51-12L350 61z" transform="translate(-109 -61)" fill="#fdfeff"/></symbol><symbol id="banner" viewBox="0 0 1024 1024"><path d="M512 1009A497.14 497.14 0 0 1 318.55 54.05 497.13 497.13 0 0 1 705.45 970 493.9 493.9 0 0 1 512 1009z" fill="#fcfcfc"/><path d="M512 30a482.13 482.13 0 0 1 187.61 926.13A482.13 482.13 0 0 1 324.39 67.87 478.93 478.93 0 0 1 512 30m0-30C229.23 0 0 229.23 0 512s229.23 512 512 512 512-229.23 512-512S794.77 0 512 0z" fill="#cecece"/><rect id="Desctop" x="190.5" y="243.8" width="643.5" height="400.61" rx="29" fill="#fff" stroke="#000" stroke-miterlimit="10" stroke-width="31"/><path id="lamp2" d="M333.22 264.44v-44a6.81 6.81 0 0 1 2.5-5.27l4.27-3.49a6.8 6.8 0 0 1 4.32-1.54h7.33a6.84 6.84 0 0 1 4.81 2l3.09 3.09a6.8 6.8 0 0 1 2 4.82v44.43a6.81 6.81 0 0 0 6.2 6.78h.2a6.85 6.85 0 0 1 3.94 1.72l3.92 3.53a6.81 6.81 0 0 1 2.26 5.07v7.16a6.85 6.85 0 0 1-1.49 4.25l-2.76 3.44a6.8 6.8 0 0 1-5.32 2.56H327.4a6.81 6.81 0 0 1-4.82-2l-3.09-3.08a6.8 6.8 0 0 1-2-4.82v-7.73a6.78 6.78 0 0 1 2-4.81l3.34-3.34a6.83 6.83 0 0 1 4.2-2 6.81 6.81 0 0 0 6.19-6.77z"/><path id="lamp1" d="M502.06 264.44v-44a6.81 6.81 0 0 1 2.5-5.27l4.27-3.49a6.79 6.79 0 0 1 4.31-1.54h7.33a6.84 6.84 0 0 1 4.82 2l3.08 3.09a6.81 6.81 0 0 1 2 4.82v44.43a6.81 6.81 0 0 0 6.19 6.78h.2a6.79 6.79 0 0 1 3.94 1.74l3.93 3.53a6.84 6.84 0 0 1 2.25 5.07v7.16a6.79 6.79 0 0 1-1.49 4.25l-2.75 3.44a6.81 6.81 0 0 1-5.32 2.56h-41.09a6.81 6.81 0 0 1-4.82-2l-3.08-3.08a6.81 6.81 0 0 1-2-4.82v-7.73a6.79 6.79 0 0 1 2-4.81l3.34-3.34a6.8 6.8 0 0 1 4.2-2 6.81 6.81 0 0 0 6.19-6.79z"/><path id="lamp" d="M676.82 264.44v-44a6.81 6.81 0 0 1 2.5-5.27l4.27-3.49a6.77 6.77 0 0 1 4.31-1.54h7.33a6.84 6.84 0 0 1 4.82 2l3.08 3.09a6.81 6.81 0 0 1 2 4.82v44.43a6.81 6.81 0 0 0 6.19 6.78h.2a6.79 6.79 0 0 1 3.94 1.72l3.93 3.53a6.84 6.84 0 0 1 2.25 5.07v7.16a6.79 6.79 0 0 1-1.49 4.25l-2.75 3.44a6.81 6.81 0 0 1-5.32 2.56H671a6.81 6.81 0 0 1-4.82-2l-3.08-3.08a6.81 6.81 0 0 1-2-4.82v-7.73a6.79 6.79 0 0 1 2-4.81l3.34-3.34a6.8 6.8 0 0 1 4.19-2 6.81 6.81 0 0 0 6.19-6.77z"/><path id="Leg_right" d="M560.38 643.3H590v225.11h-29.62z"/><path id="Leg_left" d="M444.86 641.08h29.62v225.11h-29.62z"/><rect id="Land" x="401.17" y="851.39" width="234" height="31.1" rx="15.55"/></symbol><symbol id="print" viewBox="0 0 1024 1024"><g id="BG"><path d="M514 1009A497.14 497.14 0 0 1 320.55 54.05 497.13 497.13 0 0 1 707.45 970 493.9 493.9 0 0 1 514 1009z" transform="translate(-2)" fill="#fff"/><path d="M514 30a482.13 482.13 0 0 1 187.61 926.13A482.13 482.13 0 0 1 326.39 67.87 478.93 478.93 0 0 1 514 30m0-30C231.23 0 2 229.23 2 512s229.23 512 512 512 512-229.23 512-512S796.77 0 514 0z" transform="translate(-2)" fill="#cecece"/></g><rect x="188.5" y="358.37" width="646.34" height="345.75" rx="65.25" fill="#fff" stroke="#050505" stroke-miterlimit="10" stroke-width="19"/><rect x="263.79" y="595.48" width="483.97" height="45.7" rx="22.85"/><path fill="#fff" stroke="#000" stroke-miterlimit="10" stroke-width="16" d="M307.62 602.97h399.21V809H307.62z"/><path d="M314.22 608.97h386.36v49.45H314.22z"/><path d="M389.06 657.66h235.89v15.73H389.06zm0 64.43h235.89v15.73H389.06z"/><path fill="#020202" d="M298.26 324.28h415.8v31.47h-415.8z"/><path fill="#fff" stroke="#000" stroke-miterlimit="10" stroke-width="19" d="M322.6 235.5h367.1v125.86H322.6z"/><path d="M322.53 363.61H691v103.47a40.37 40.37 0 0 1-40.37 40.37h-288a40.12 40.12 0 0 1-40.12-40.12V363.61h.02z" stroke="#000" stroke-miterlimit="10" stroke-width="19"/><circle cx="766.12" cy="451.26" r="16.86"/></symbol><symbol id="auto" viewBox="0 0 1024 1024"><g id="BG"><path d="M512.5 1009A496.13 496.13 0 0 1 319.44 56a496.13 496.13 0 0 1 386.12 914 492.86 492.86 0 0 1-193.06 39z" transform="translate(-1.5 -2)" fill="#fff"/><path d="M512.5 32a481.13 481.13 0 0 1 187.22 924.21A481.13 481.13 0 0 1 325.28 69.79 477.85 477.85 0 0 1 512.5 32m0-30C230.28 2 1.5 230.78 1.5 513s228.78 511 511 511 511-228.78 511-511S794.72 2 512.5 2z" transform="translate(-1.5 -2)" fill="#cecece"/></g><path id="Car_body" d="M231.72 726.29l1-63.78c0-2.5-3.63-12.32-5.12-14.33l-21.5-24.57c-1.38-1.86-6.14-7.17-7.33-14.82l-3.93-50.7a37.67 37.67 0 0 1 4.16-20.48l14.54-25.24a11.62 11.62 0 0 0-8.56-17.05l-3.56-.51a11.63 11.63 0 0 1-9.85-9.77l-12-56c-1-6.85 6.39-13 13.31-13.31l61.58.27a11.61 11.61 0 0 0 10-6.61L285 351.28c5.12-12.28 54.64-48 57.33-49.14l46.07-16.38c8.19-4.09 31.74-8.19 58.36-10.24l127-1c24.57 0 81.9 16.38 91.11 21.5l47.92 24.07c14.54 7.67 32.63 46 34 48.62l15.26 39a11.65 11.65 0 0 0 10 6.24l58.7-.19c6.75.18 15 7.61 14.33 14.34l-7.17 56.31c-.6 5.93-8.63 12.28-14.59 12.28h0a11.62 11.62 0 0 0-10.3 17l13.63 22.93c.87 1.66 3.07 13.48 3.07 15.35l-1 43c0 9.22-5 21.68-6.14 23.55L803 648.18c-1.11 1.73-6.15 9.21-6.15 18.43l-2.85 62.8a11.63 11.63 0 0 1-3.68 8l-8.53 8a11.64 11.64 0 0 1-7.93 3.12h-70.34a11.63 11.63 0 0 1-7.06-2.39l-9.72-7.43a11.63 11.63 0 0 1-4.56-9.23V709a11.63 11.63 0 0 0-11.66-11.62l-311 .95a11.63 11.63 0 0 0-11.48 10l-3.14 22.77a11.64 11.64 0 0 1-3.6 6.92l-8 7.39a11.64 11.64 0 0 1-7.91 3.1h-71.5a11.6 11.6 0 0 1-8.21-3.4l-10.6-10.6a11.61 11.61 0 0 1-3.36-8.22z" transform="translate(-1.5 -2)" stroke="#000" stroke-miterlimit="10"/><circle cx="323.38" cy="574.52" r="50.17" fill="#fcfcfc" stroke="#000" stroke-miterlimit="10"/><circle cx="703.2" cy="574.52" r="50.17" fill="#fcfcfc" stroke="#000" stroke-miterlimit="10"/><path d="M721.08 439.33H306.45l20.29-44.75c9.3-20.53 13.5-27.94 37-45.34l33.79-13.31c29.69-8.19 47-8.19 72.84-8.19H561c13.85 0 45.54 4.08 58.78 8.19l32.76 11.26c32.76 16.38 41.32 30.51 58.37 62.95z" transform="translate(-1.5 -2)" fill="#fcfcfc" stroke="#000" stroke-miterlimit="10"/></symbol><symbol id="human" viewBox="0 0 1024 1024"><g id="BG"><path d="M511.5 1009.5A497.14 497.14 0 0 1 318.05 54.55 497.13 497.13 0 0 1 705 970.45a493.9 493.9 0 0 1-193.5 39.05z" transform="translate(.5)" fill="#fff"/><path d="M511.5 30.5a482.13 482.13 0 0 1 187.61 926.13A482.13 482.13 0 0 1 323.89 68.37 478.93 478.93 0 0 1 511.5 30.5m0-30C228.73.5-.5 229.73-.5 512.5s229.23 512 512 512 512-229.23 512-512S794.27.5 511.5.5z" transform="translate(.5)" fill="#cecece"/></g><circle id="Head" cx="512.5" cy="201" r="83.5" stroke="#000" stroke-miterlimit="10"/><path id="Leg" d="M600 911.5H437l-42-321 243-1-38 322z"/><path id="Body" d="M633.44 637H395.56A38.57 38.57 0 0 1 357 598.44l1-207.88c0-21.29 13-59.56 79-80.56h163c56 20 73 59.27 73 80.56l-1 207.88A38.57 38.57 0 0 1 633.44 637z" transform="translate(.5)"/></symbol><symbol id="infoStand" viewBox="0 0 1024 1024"><g id="BG"><path d="M512 1009A497.14 497.14 0 0 1 318.55 54.05 497.13 497.13 0 0 1 705.45 970 493.9 493.9 0 0 1 512 1009z" fill="#fff"/><path d="M512 30a482.13 482.13 0 0 1 187.61 926.13A482.13 482.13 0 0 1 324.39 67.87 478.93 478.93 0 0 1 512 30m0-30C229.23 0 0 229.23 0 512s229.23 512 512 512 512-229.23 512-512S794.77 0 512 0z" fill="#cecece"/></g><rect x="200.5" y="200.5" width="622.5" height="622.5" rx="79.5" fill="#fff" stroke="#000" stroke-miterlimit="10" stroke-width="30"/><path fill="#fcfcfc" stroke="#000" stroke-miterlimit="10" stroke-width="14" d="M487.03 698.54h-191.4v-239.6H435.4l51.63 51.44v188.16zm244.96 0h-191.4v-239.6h139.77l51.63 51.44v188.16z"/><circle cx="277.44" cy="269.44" r="14.44"/><circle cx="763.62" cy="269.44" r="14.44"/><circle cx="277.44" cy="754.84" r="14.44"/><circle cx="763.62" cy="754.84" r="14.44"/><text transform="matrix(1.09 0 0 1 305 408.95)" font-size="138.517" font-family="MyriadPro-Regular,Myriad Pro">ИНФО</text></symbol><symbol id="plotter" viewBox="0 0 1024 1024"><g id="Layer_6"><g id="BG"><path d="M512.5 1010A497.63 497.63 0 0 1 318.85 54.09a497.63 497.63 0 0 1 387.29 916.82A494.29 494.29 0 0 1 512.5 1010z" fill="#fff"/><path d="M512.5 30a482.63 482.63 0 0 1 187.8 927.09A482.63 482.63 0 0 1 324.7 67.9 479.45 479.45 0 0 1 512.5 30m0-30C229.45 0 0 229.45 0 512.5S229.45 1025 512.5 1025 1025 795.55 1025 512.5 795.55 0 512.5 0z" fill="#cecece"/></g></g><g id="Niz" fill="#fff" stroke="#000" stroke-miterlimit="10"><path d="M249.93 417.14c-34.23 29.59-34.93 81.13-6.76 109.07 29.19 29 83.21 26.43 111.61-11" stroke-width="8"/><path stroke-width="7" d="M329.41 463.64h383.03v77.79H329.41zm64.1 77.79h255.67a31.13 31.13 0 0 1 31.13 31.13v18.08a31.13 31.13 0 0 1-31.12 31.13H393.51a31.13 31.13 0 0 1-31.12-31.12v-18.1a31.12 31.12 0 0 1 31.12-31.12z"/><path stroke-width="7" d="M523.04 756.2L416.5 621.75h208.85L523.04 756.2zm-27.9-34.67a30.18 30.18 0 0 1 52.42 0m-88.78-45.66l123.45-.85"/><path stroke-width="8" d="M365.35 562.99h310.31m-310.31 18.6l310.31-.84m-310.31 19.44h310.31"/></g><g id="Seredina" fill="#fff" stroke="#000" stroke-miterlimit="10"><path d="M214.84 338.08c-36.16 29.64-36.69 83.52-6.76 111.61s83.38 24.2 110.76-13.53" stroke-width="8"/><path d="M291.53 360.48h460.33v61.16a42 42 0 0 1-42 42H331.4a39.87 39.87 0 0 1-39.87-39.87v-63.29h0z" stroke-width="7"/><path stroke-width="8" d="M291.78 383.74h456.59m-456.59 19.44h456.59m-456.59 18.61h456.59"/></g><g id="Verh" fill="#fff" stroke="#000" stroke-miterlimit="10"><path d="M257.54 234.5h527.61v84a42 42 0 0 1-42 42H297.42a39.88 39.88 0 0 1-39.87-39.87V234.5h-.01z" stroke-width="7"/><path stroke-width="8" d="M257.12 252.68h526.77m-526.77 19.45h526.77m-526.77 18.6h526.77m-526.77 18.6h526.77"/></g><path d="M205.54 772.68l21.14 3.38m32.97 4.23l29.6 5.08m30.44 2.53l24.52 4.23m32.97 5.07l28.75 4.23m31.29 4.23l27.05 4.23m113.31-1.69l29.59-4.23m29.59-4.23l30.44-4.23m28.75-5.07l27.9-4.23m32.98-3.38l27.9-5.07m30.44-3.39l22.83-4.22m-53.27 7.61h0m-542.83 46.5l20.29-.85m32.98.85h27.9m32.13 0h28.75m30.44 0h29.59m29.59 0h29.6m38.05 0h27.05m31.29 0H630m30.44 0h28.75m29.59 0h30.44m30.44 0h21.14" id="Strujki" stroke="#554682" stroke-miterlimit="10" stroke-width="8"/></symbol><symbol id="streetLine" viewBox="0 0 1024 1024"><g id="Layer_3"><path d="M512 1009A497.14 497.14 0 0 1 318.55 54.05 497.13 497.13 0 0 1 705.45 970 493.9 493.9 0 0 1 512 1009z" fill="#fff"/><path d="M512 30a482.13 482.13 0 0 1 187.61 926.13A482.13 482.13 0 0 1 324.39 67.87 478.93 478.93 0 0 1 512 30m0-30C229.23 0 0 229.23 0 512s229.23 512 512 512 512-229.23 512-512S794.77 0 512 0z" fill="#cecece"/></g><path d="M230.3 781.58l-3.4-1.7c-2-1.31-3.4-4.86-3.4-7.28V717l69.31-532.23a64.89 64.89 0 0 1 11.33-29l1-1.41a64.92 64.92 0 0 1 26.15-21.65h0a65 65 0 0 1 25.25-5.79l284.19-7a51.37 51.37 0 0 1 25.64 6.08h0a51.46 51.46 0 0 1 16.92 14.64l5.42 7.3a51.44 51.44 0 0 1 9.38 21.91l106.7 619.36v47a11.68 11.68 0 0 1-3.41 8.24h0a11.67 11.67 0 0 1-13.45 2.18l-1.35-.67a11.65 11.65 0 0 1-6.44-10.42v-19.12l-354.38 39.09V876a15.08 15.08 0 0 1-4 10.23h0a11.62 11.62 0 0 1-12.95 2.87l-3.47-1.43a7.6 7.6 0 0 1-4.62-5.89L379 739.09l-129.16 12.74.62 18A10.78 10.78 0 0 1 246 779l-2.95 2.56c-2.05 1.52-10.6 1.44-12.75.02z" stroke="#000" stroke-miterlimit="10"/><path fill="#fffffd" stroke="#000" stroke-miterlimit="10" d="M308.48 282.73l-58.64 445.31 124.08-14.45-65.44-430.86z"/><path d="M777.92 792.49l-356 38.8-98.27-623.37c-4.45-32.28 8.93-59.27 41.49-60.36l260-5.91c31.32-1 48.08 17.75 53.74 48.57z" fill="#fffffd"/><path d="M733.83 766.09L450 797.3l-88.58-563.74c-3.6-29.45 7.22-54.09 33.55-55.08l215.32-6.24c25.32-1 38.87 16.2 43.45 44.32z" fill="#fcfcf7" stroke="#020202" stroke-miterlimit="10" stroke-width="20"/><path d="M628.45 393.63l-190.37 11.9a15.34 15.34 0 0 1-15.29-15.3L404.94 268.7a15.34 15.34 0 0 1 15.3-15.29l189.51-8.5a15.34 15.34 0 0 1 15.3 15.29l18.69 118.13a15.34 15.34 0 0 1-15.29 15.3z" fill="#fcfcf7" stroke="#020202" stroke-miterlimit="10" stroke-width="20"/><path d="M646.24 462.73l-194.8 14.15c-4.66.44-8.89-3.09-9.89-8.25l-.45-2.35c-1.2-6.21 2.73-12.19 8.34-12.72l195-14c5-.47 9.37 3.55 10 9.12l.25 2.21c.71 5.95-3.15 11.34-8.45 11.84zm10.2 50.99l-196.5 14.15c-4.66.44-8.89-3.09-9.89-8.25l-.45-2.35c-1.2-6.21 2.73-12.19 8.34-12.72l196.7-14c5-.47 9.37 3.55 10 9.12l.26 2.21c.7 5.95-3.16 11.34-8.46 11.84zm11.05 52.69l-194.8 15.84c-4.67.45-8.9-3.08-9.89-8.24l-.45-2.35c-1.2-6.21 2.72-12.19 8.34-12.72l195-15.7c5-.47 9.38 3.55 10 9.12l.26 2.21c.7 5.95-3.16 11.34-8.46 11.84z"/></symbol><symbol id="rollUp" viewBox="0 0 1024 1024"><g id="BG"><path d="M512 1009A497.14 497.14 0 0 1 318.55 54.05 497.13 497.13 0 0 1 705.45 970 493.9 493.9 0 0 1 512 1009z" fill="#fff"/><path d="M512 30a482.13 482.13 0 0 1 187.61 926.13A482.13 482.13 0 0 1 324.39 67.87 478.93 478.93 0 0 1 512 30m0-30C229.23 0 0 229.23 0 512s229.23 512 512 512 512-229.23 512-512S794.77 0 512 0z" fill="#cecece"/></g><path fill="#fff" stroke="#000" stroke-miterlimit="10" stroke-width="20" d="M327.06 140h369.88v663.23H327.06z"/><path fill="none" stroke="#000" stroke-miterlimit="10" stroke-width="20" d="M331.05 166.31h363.5"/><path fill="#fff" stroke="#000" stroke-miterlimit="10" stroke-width="20" d="M288 780.91h448v24.71H288zm41.45 29.5h62.18v23.12h-62.18zm303.72 0h62.18v23.12h-62.18z"/></symbol><symbol id="cards" viewBox="0 0 1024 1024"><g id="BG"><path d="M512 1008A496.14 496.14 0 0 1 318.94 55a496.13 496.13 0 0 1 386.12 914A492.86 492.86 0 0 1 512 1008z" transform="translate(-1 -1)" fill="#fff"/><path d="M512 31a481.13 481.13 0 0 1 187.22 924.21A481.13 481.13 0 0 1 324.78 68.79 477.85 477.85 0 0 1 512 31m0-30C229.78 1 1 229.78 1 512s228.78 511 511 511 511-228.78 511-511S794.22 1 512 1z" transform="translate(-1 -1)" fill="#cecece"/></g><rect x="156.5" y="265.54" width="708.5" height="491.17" rx="63.87" fill="#fff" stroke="#000" stroke-miterlimit="10" stroke-width="29"/><path stroke="#000" stroke-miterlimit="10" d="M169.73 382.9H852.6v36.38H169.73zm0 81.02H852.6v36.38H169.73z"/><rect x="501.24" y="544.94" width="155.42" height="36.38" rx="12.25" stroke="#000" stroke-miterlimit="10"/><rect x="236.69" y="544.94" width="202.55" height="36.38" rx="12.25" stroke="#000" stroke-miterlimit="10"/><rect x="236.69" y="628.44" width="229.83" height="36.38" rx="12.25" stroke="#000" stroke-miterlimit="10"/></symbol><symbol id="arrow" viewBox="0 0 984 991.55"><path d="M788.59 544.19L745.13 586a44.84 44.84 0 0 1-62.74-.53L231.93 136.8a44.84 44.84 0 0 1 .54-64.06L276.81 30a44.84 44.84 0 0 1 62.81.59l449.57 449.6a44.83 44.83 0 0 1-.6 64z" transform="translate(-20 -16.99)" fill="#020202" stroke="#000" stroke-miterlimit="10"/><path d="M748.77 439.9l41.68 43.62a44.84 44.84 0 0 1-.78 62.74L339.22 995a44.85 44.85 0 0 1-64.06-.78l-42.54-44.51a44.83 44.83 0 0 1 .83-62.81l451.32-447.85a44.83 44.83 0 0 1 64 .85z" transform="translate(-20 -16.99)" fill="#020202" stroke="#000" stroke-miterlimit="10"/></symbol><symbol id="hamburger" viewBox="0 0 1024.5 515.58"><rect x=".5" y=".5" width="1023.5" height="62.2" rx="14" stroke="#000" stroke-miterlimit="10"/><rect x=".5" y="226.69" width="1023.5" height="62.2" rx="14" stroke="#000" stroke-miterlimit="10"/><rect x=".5" y="452.88" width="1023.5" height="62.2" rx="14" stroke="#000" stroke-miterlimit="10"/></symbol><symbol id="close" viewBox="0 0 1024.98 1024.98"><path transform="rotate(45 511.4 512.419)" fill="#020202" stroke="#000" stroke-miterlimit="10" d="M-65.31 365.46h1155.06v292.48H-65.31z"/><path transform="rotate(135 512.191 512.15)" fill="#020202" stroke="#000" stroke-miterlimit="10" d="M-65.31 365.46h1155.06v292.48H-65.31z"/></symbol><symbol id="callMe" viewBox="0 0 1024 1024"><circle cx="512" cy="512" r="512" fill="currentColor"/><path d="M257.5 806.5l49 19c87 16 150.69-22.71 188-45l85-59c60-39 183-186 206-237l21-45c19-44 25.61-110 15.42-153.58L806.5 257.5l-157 157 4.23 7.33a32.72 32.72 0 0 1-2.14 35.93l-60.5 80.89A229.61 229.61 0 0 1 548 582.52L455.89 654a33.45 33.45 0 0 1-36.66 2.87l-9.73-5.37z" transform="translate(-.5 -.5)" fill="#fff"/><path d="M210.89 644.72h170.85a19.8 19.8 0 0 1 19.8 19.8v65.76H184.46v-59.14a26.43 26.43 0 0 1 26.43-26.42z" transform="rotate(-45 292.15 687.858)" fill="#fff"/><path d="M602.89 251.72h170.85a19.8 19.8 0 0 1 19.8 19.8v65.76H576.46v-59.14a26.43 26.43 0 0 1 26.43-26.42z" transform="rotate(-45 684.153 294.855)" fill="#fff"/></symbol><symbol id="clock" viewBox="0 0 1021.5 1021.5"><circle cx="510.75" cy="510.75" r="510.25" fill="#020202" stroke="#000" stroke-miterlimit="10"/><circle cx="510.75" cy="510.75" r="448.84" fill="#fff" stroke="#000" stroke-miterlimit="10"/><path d="M481.51 241.74h57.02v335.54h-57.02z"/><path transform="rotate(-45 596.273 657.856)" d="M570.47 520.43h57.02v268.61h-57.02z"/></symbol><symbol id="male" viewBox="0 0 1015.19 713.96"><rect x="21.25" y="42.15" width="972.36" height="630.76" rx="18" fill="#fff" stroke="#000" stroke-miterlimit="10" stroke-width="42"/><path d="M545.19 276.86l430.2 328.8c40 30.54 15.38 88.3-37.6 88.3H77.4c-53 0-77.57-57.76-37.6-88.3L470 276.86c21.56-16.47 53.63-16.47 75.19 0z" fill="#fff" stroke="#000" stroke-miterlimit="10" stroke-width="40"/><path d="M470 437.1L39.8 108.3C-.2 77.75 24.42 20 77.4 20h860.39c53 0 77.57 57.75 37.6 88.3l-430.2 328.8c-21.56 16.47-53.63 16.47-75.19 0z" fill="#fff" stroke="#000" stroke-miterlimit="10" stroke-width="40"/></symbol><symbol id="map_address" viewBox="0 0 802.15 1025.32"><path d="M913 402c0 245-254 528-382 618-10.35 7.28-20.77 9.12-34 1-132-81-379-367-386-619C104.85 180.62 290.53 1 512 1s401 179.53 401 401z" transform="translate(-110.85 -1)" fill="#020202"/><circle cx="401.15" cy="401.5" r="269.5" fill="#fff"/><circle cx="401.15" cy="400" r="155"/></symbol><symbol id="phone" viewBox="0 0 1019.28 1023.77"><path d="M106.74 987.19l78.79 30.55c139.9 25.73 242.31-36.51 302.31-72.36l136.68-94.87C721 787.8 918.79 551.42 955.77 469.41l33.77-72.36c30.55-70.75 41.18-176.91 24.79-246.95l-24.79-45.71-252.46 252.46 6.8 11.79a52.58 52.58 0 0 1-3.44 57.78l-97.29 130.07a369 369 0 0 1-69.3 70.51L425.76 742a53.78 53.78 0 0 1-59 4.6l-15.6-8.6z" transform="translate(-2.72 -.03)"/><path d="M15.72 727h302.84a19.8 19.8 0 0 1 19.8 19.8v117.83H-10.7V753.47A26.43 26.43 0 0 1 15.72 727z" transform="rotate(-45 162.42 799.104)"/><path d="M646.06 95.1H948.9a19.8 19.8 0 0 1 19.8 19.8v117.78H619.64V121.52a26.43 26.43 0 0 1 26.42-26.42z" transform="rotate(-45 792.768 167.155)"/></symbol><symbol id="icq" viewBox="0 0 1020.18 1008.55"><circle cx="512.91" cy="504.04" r="167" fill="#fff" stroke="#000" stroke-miterlimit="10" stroke-width="100"/><path d="M755.3 201.13c-20.14 70.51-112.39 173.91-184.39 173.91-7.1 0-26.14-6.48-33-9-60-22-85.53-167.56-63.39-245.09a146.002 146.002 0 0 1 280.78 80.18zM230.12 798.4c24.66-69.05 123.42-166.25 195.27-161.58 7.08.46 25.66 8.16 32.35 11.12 58.44 25.84 74.48 172.75 47.36 248.69a146.009 146.009 0 1 1-275-98.23zm-14.39-551.31c68 27.47 161.07 130.12 153.47 201.72-.75 7.05-9.2 25.3-12.43 31.86-28.21 57.37-175.65 67.37-250.41 37.17a146.003 146.003 0 1 1 109.37-270.75zm605.58 531.52c-70.82-19-175.69-109.57-176.85-181.57-.11-7.1 6.06-26.24 8.47-33.14 21-60.35 166.17-88.21 244.05-67.31a146 146 0 0 1-75.67 282z" fill="#fff" stroke="#000" stroke-miterlimit="10" stroke-width="30"/><path d="M839.21 456.41c-46.86 30-147.78 47.89-184.73 18-3.64-2.95-10.05-14.38-12.27-18.6-19.4-36.9 42.92-126.69 94.45-159.66s116.25-23.84 144.59 20.42 9.5 106.87-42.04 139.84zM555.55 821.89c-23.1-50.61-26.64-153 8.17-185.42 3.43-3.19 15.66-7.93 20.15-9.54 39.26-14 119.39 60.3 144.79 116s7.25 118.42-40.56 140.23-107.19-5.61-132.55-61.27zm-118.9-653.52c27.63 48.29 42.12 149 12.26 183.41-2.95 3.39-14.15 8.92-18.28 10.82-36.12 16.57-121-51.1-151.36-104.21s-19.77-116.3 23.69-141.16 103.31-1.97 133.69 51.14z" fill="#fff" stroke="#000" stroke-miterlimit="10" stroke-width="30"/><path d="M166.91 563.21c48.4-27.43 149.22-41.53 183.47-11.53 3.37 3 8.86 14.18 10.74 18.32 16.43 36.18-51.57 120.78-104.79 150.95s-116.42 19.31-141.08-24.24-1.56-103.33 51.66-133.5z" stroke="#000" stroke-miterlimit="10" stroke-width="30"/></symbol><symbol id="instagram" viewBox="0 0 1024.5 1024"><rect x=".5" width="1024" height="1024" rx="117.5"/><path fill="#fcfcfc" d="M0 425.5h1024v86H0z"/><circle cx="512" cy="511.5" r="301" fill="#fcfcfc"/><circle cx="512" cy="511.5" r="214"/><rect x="770" y="85.5" width="168" height="169.01" rx="27.56" fill="#fcfcfc"/></symbol><symbol id="skype" viewBox="0 0 1011.58 1020.96"><path d="M359.7 67.07l59.5 33.5 85-12c173-12 313.5 75.5 377.5 179.5 0 0 109 158 72.5 290.5l-24 67 33 97.06c20.5 80.44 1.87 134-38.5 182.44 0 0-102 102-225.5 69.5l-90-39-81 23c-112 16-205.81-32.74-271.07-81l-24.24-17.93C159.2 805.15 91.7 691.07 91.7 691.07c-53.36-73.15-68-177-31.72-243l23.72-35-27-93c-24-83-9.81-135.52 9.5-169.5 0 0 97.5-176.5 293.5-83.5z" fill="#fff" stroke="#000" stroke-miterlimit="10" stroke-width="80" id="Layer_2"/><path d="M695.7 344.07c-38.2-105.54-118.55-124.49-219-122-84.43 2.09-192.78 68.16-164 166 40 136 373 58 408 238 15.71 80.82-78.25 170.32-210 167-91.28-2.3-201-48-221-143" fill="none" stroke="#000" stroke-linecap="round" stroke-miterlimit="10" stroke-width="120" id="Layer_3"/></symbol><symbol id="twitter" viewBox="0 0 900.85 754"><path d="M208 190l69 65c22.42 18.43 63.85 47.76 91 58l77 24 20-64c33-71 95-97 95-97 34-27 113-27 113-27 31.39 0 59.38 9.12 88 22l37 21 70-31c14.88-6.09 37 2 37 2 28 9 34.37 33.4 37 48l-5 20 21 23c10.47 18.85 13 45-30 95l-46 43v49c-1.31 15.9-13 59-19 85l-21 61c-20.56 46.45-43.51 92.1-77.83 129.54l-24.62 26.85C695.67 791.27 641 836 579 859l-67 24c-10.06 3.2-64.48 14.06-75 15l-77 5c-57 0-120.08-12-173-32l-58-26c-50-22-59-45-59-45-12-20-6-56 9-67 0 0 21-21 96-17l44-5-25-24c-17.39-21.82-35.41-53-42-80.17V581l-24-30c-19-32-44-101-31-136l12-21-13-52.25C88 309 108 237 108 237c19-48 38.25-55 58-60 0 0 29-3 42 13z" transform="translate(-63.62 -149)" fill="#020202" id="Layer_2"/><path d="M883 219l-48 22.15a51.49 51.49 0 0 1-8.25 3L783 256l-39.84-29.31a143 143 0 0 0-74.1-20.69H658a143.1 143.1 0 0 0-80.35 24.7l-10.94 7.43a143.08 143.08 0 0 0-50.27 60.05A143.09 143.09 0 0 0 504 356.46l3 45.54-36-2c-91-10-172.49-52.06-221-91l-76-72-7 13c-24 46-18 120 23.19 169.06L222 451l-36-6-36-14 2 22c9 52 32 92 90 125l37 12-18.09 3.29a128.72 128.72 0 0 1-30 1.89L209 594l9.6 26.53C245.5 659.17 274 691 330 702l27 3-65 40.33c-28.36 14.3-53 18.67-91 24.9l-78 .77 66.78 38.66a303.58 303.58 0 0 0 61.31 21.78C317.3 847 402.37 848.33 469 833.08A446.45 446.45 0 0 0 669.56 728.4l3.47-3.15A446.46 446.46 0 0 0 784.3 568.19l5.38-12.77a446.47 446.47 0 0 0 32.94-129.84L825 365l38.15-33.15a135.9 135.9 0 0 0 16.21-17.11L904 282l-40.66 13.55a75 75 0 0 1-8.82 2.37L815 306l31.82-29a100.89 100.89 0 0 0 22.61-30.2z" transform="translate(-63.62 -149)" fill="#fcfafa" id="Layer_3"/></symbol><symbol id="vk" viewBox="0 0 1023.72 607.79"><path d="M2.76 239.48A20.9 20.9 0 0 0 4 243.27l94.43 222.87C142 556 241.64 662.47 252.75 675.93a21.52 21.52 0 0 0 1.78 1.92c78 74 132.64 106.92 239.43 118.78a21.8 21.8 0 0 0 2.91.13l56.07-1.37c28.08-1.81 46.27-16.79 45.2-45.68V641.63c0-31.77 39.09-35 63.45-15.59.51.4 1 .79 1.56 1.14l33.44 21.94c20.33 13.92 40.3 35 43.84 38.62L831 780.31c.28.29.57.56.87.84 7.06 6.44 17.12 15.64 38.08 15.64H985.5c27.88 0 46.17-28.57 35.34-53.6a21.32 21.32 0 0 0-2.39-4.14L951 646c-2.43-3.3-32.64-37.64-33-38l-60.4-60c-.34-.34-.67-.68-1-1-19.51-22-21.93-36.51-6-61.53L964.49 309.9a22.26 22.26 0 0 0 1.24-2.18l33.7-68.43a22.11 22.11 0 0 0 1.7-4.8C1010 195.14 983.2 189 961.75 189H854.93c-15.45 0-34 11.14-41.3 24.77L756.51 324.9c-5.32 10-45.61 76.38-77.64 112.88-.32.37-.65.72-1 1.06l-36.4 36.4a21.14 21.14 0 0 1-4 3.13c-19.17 11.67-36.86 4.85-39.28-17.69-.06-.63-.09-1.28-.1-1.92l-2.94-241.17c-.1-11.69-8.55-28.59-20.25-28.59h-189c-8.24 0-19.91 13.91-19.91 13.91-3.06 6.43-3.17 19.73.47 25.85l28.42 38.35a87.49 87.49 0 0 1 10.7 36.39l.42 207.43c-1 19.16-35.36 22.48-48 8.07l-12.39-15.4C325.28 477.92 285 422 262.14 374.12l-68.48-161.58c-4.88-11.2-22.88-23.54-35.1-23.54H49.71c-32.2 0-57.64 0-46.95 50.48z" transform="translate(-.28 -189)"/></symbol><symbol id="ldpr" viewBox="0 0 1947 794"><path d="M49 688l6.83-1.58a58 58 0 0 0 45-56.77L99 124l403 3v678H334l-8-547h-42l.94 427.73a115.41 115.41 0 0 1-11.25 50l-1.67 3.5A115.56 115.56 0 0 1 216 794.47 115.54 115.54 0 0 1 167.75 805H49zm998-30V124H655l-11.71 272.6a631.43 631.43 0 0 1-13.52 105.65L595 664h-35v254h118l-3-113h288l1 113h116V658zm-176 3H770l29.78-149.67a632.34 632.34 0 0 0 11.45-93.52L819 253h52z" transform="translate(-49 -124)"/><path d="M1089 681V0h408v681h-180V136l-52-1-3 546h-173z"/><path d="M1981.69 194.56l-7.77-12.17a91.25 91.25 0 0 0-40.33-34.51l-37.11-16.23a91.09 91.09 0 0 0-36.56-7.65H1620v681h188V521h89.56a91.17 91.17 0 0 0 77.57-43.24l7.24-11.72a91.17 91.17 0 0 0 13.63-48V243.61a91.28 91.28 0 0 0-14.31-49.05zM1857 373.82c0 16.14-13.57 33.37-29 38l-28 3.18V241l28.49 3.54c16.67 3.78 31.51 15.6 31.51 32.69z" transform="translate(-49 -124)"/></symbol><symbol id="ya-taxi" viewBox="0 0 1965.78 539"><text transform="matrix(.79 0 0 1 143.16 377.68)" font-size="352.888" font-family="Consolas">ндекс</text><text transform="matrix(.63 0 0 1 0 385.39)" font-size="418.237" fill="red" font-family="Consolas">Я</text><text transform="matrix(1.05 0 0 1 1054.18 361.89)" font-size="267.431" font-family="MyriadPro-Regular,Myriad Pro"><tspan letter-spacing="-.08em">Т</tspan> <tspan x="111.52" y="0">а</tspan> <tspan x="240.42" y="0" letter-spacing="-.006em">к</tspan> <tspan x="366.91" y="0">си</tspan></text><path fill="none" stroke="#000" stroke-miterlimit="10" stroke-width="40" d="M934.39 20v499h850.24L1942 291.05 1779.16 20H934.39z"/></symbol><symbol id="advantages_bg" viewBox="0 0 997.31 1018.25"><path d="M534.5 873.5l5-14c7-22 29.74-42.86 47-52l28-12-2 15c-3 24-32 53-57 59zm77.61-12.5l2.45-14.67c3-22.89 21.71-47.44 37.08-59.47l25.45-16.76.67 15.12c1.29 24.15-22.14 57.82-45.69 68.13zm75.03-24.3l-.64-14.86c-1.81-23 11.4-50.91 23.94-65.87l21.42-21.67 3.8 14.65c6.26 23.36-9.68 61.15-30.57 76.13zm68.55-40.6l-3.56-14.43c-6.32-22.21 1.12-52.16 10.46-69.31l16.72-25.46 6.61 13.61c10.76 21.66 2.6 61.85-14.93 80.66zm58.51-48.75l-6.2-13.5c-10.39-20.62-8.73-51.44-2.8-70l11.62-28.16 9.06 12.12c14.65 19.24 14.22 60.25.55 82zm47.36-62.72L853 672.51c-14-18.34-18.1-48.93-15.71-68.31l6.2-29.83 11.15 10.23c18 16.21 25.12 56.59 15.72 80.52zm33.18-69.33l-10.53-10.48c-16.92-15.71-26.11-45.17-27-64.68l1.08-30.44 12.71 8.2c20.44 12.93 34.32 51.53 29.1 76.7zm21.42-74.85l-12.46-8.11c-19.77-11.91-34.8-38.87-39.68-57.77l-5.18-30L873 450c22.65 8.48 44.13 43.42 44.17 69.13zm8.16-77.93l-13.72-5.74c-21.59-8.16-41.22-32-49.42-49.7l-10.5-28.6 14.88 2.8c23.8 4.27 51.22 34.77 55.88 60.05zM676.38 92.48L665.85 103c-15.78 16.85-45.28 25.92-64.79 26.75l-30.44-1.2 8.25-12.68c13-20.38 51.68-34.1 76.83-28.78zm67.54 36.99l-12.42 8.16c-18.84 13.34-49.57 16.3-68.84 13.19l-29.58-7.29 10.63-10.77c16.85-17.34 57.47-23 81-12.75zm61.41 51.94l-13.57 6.08c-20.73 10.16-51.53 8.16-70.06 2l-28-11.92 12.21-8.94c19.41-14.43 60.41-13.54 82 .36zM855 243l-14.47 3.38c-22.29 6-52.15-1.77-69.18-11.33l-25.25-17 13.69-6.44c21.8-10.49 61.88-1.83 80.47 15.93zm34 68.46l-14.89-.46c-23.09.16-50-15-64-28.59L790 259.54l14.88-2.74c23.75-4.58 60.31 14 73.75 35.93zm25.49 74.16L899.86 383c-22.84-3.32-47.13-22.37-59-37.9l-16.4-25.68 15.12-.47c24.17-.94 57.51 22.95 67.5 46.64zm-351.81 507l14.83-1.07c23-2.46 51.22 9.94 66.54 22l22.27 20.79-14.53 4.22c-23.18 6.93-61.41-7.91-77-28.37zm81.57-16.7l14.11-4.66c21.66-8 52.1-2.89 69.91 5.11L755 891.08l-13.06 7.64c-20.78 12.39-61.48 7.34-81.58-8.69zm77.46-38.29l13.67-5.84c20.9-9.8 51.66-7.28 70.09-.82l27.82 12.4-12.37 8.72c-19.65 14.1-60.63 12.51-82-1.77zm73.95-42.49l11.86-9c17.93-14.54 48.39-19.5 67.83-17.66l30 5.34-9.9 11.44c-15.68 18.41-55.84 26.73-80 18zm56.55-58.06l10.2-10.82c15.24-17.34 44.45-27.32 63.92-28.76l30.46.25-7.85 12.93c-12.38 20.78-50.58 35.7-75.89 31.16zm42.88-63.48l7.46-12.86c10.87-20.36 37-36.76 55.64-42.62l29.72-6.72-4.69 14.38c-7.3 23.06-41.08 46.33-66.75 47.7zm33.61-83.04l5.66-13.75c8-21.64 31.74-41.4 49.4-49.71l28.54-10.66-2.71 14.89c-4.13 23.83-34.47 51.42-59.73 56.23zm17.41-74.18l1.78-14.76c2-23 19.54-48.38 34.35-61.1l24.65-17.9 1.37 15.07c2.37 24.07-19.5 58.77-42.55 70.14zM659 70.28l-14.85.81c-23 2.06-51-10.83-66.14-23.2l-21.96-21.17 14.61-4c23.29-6.53 61.26 9 76.47 29.71zm70.59 26.13l-11.83-9c-18.86-13.31-31.88-41.3-35.37-60.51l-3-30.31L693.1 3c22 10.11 40.86 46.51 39 72.16zm72.02 52.21l-10.9-10.11C773.24 123.42 763 94.3 761.4 74.84V44.38l13 7.74c20.88 12.2 36.13 50.28 31.81 75.62zM853.78 207l-8-12.53c-13.09-19-15.63-49.78-12.26-69l7.7-29.47 10.62 10.78C869 123.85 874.09 164.54 863.5 188zm46.32 66.34l-6.91-13.16c-11.45-20.05-11.39-50.91-6.43-69.79l10.14-28.73 9.68 11.63c15.62 18.46 17.32 59.44 4.8 81.89zm30.16 77.41l-4.49-14.17c-7.75-21.75-2.27-52.12 5.94-69.84l15-26.49 7.49 13.15c12.13 20.92 6.6 61.56-9.67 81.46zm14.6 78.37l-.27-14.86c-1.22-23.06 12.68-50.61 25.59-65.26l22-21.12 3.43 14.74c5.67 23.51-11.21 60.89-32.48 75.34z" transform="translate(-15.65 4.24)" id="Leafs_right" stroke="#000" stroke-miterlimit="10"/><path d="M357.53 940.47l9-11.81c13.37-18.83 41.38-31.78 60.6-35.23l30.32-2.9-6.45 13.68c-10.16 21.94-46.61 40.74-72.25 38.85zM272 899.89l11.57-9.33c17.45-15.11 47.74-21 67.23-19.83l30.2 4.38-9.53 11.75c-15.08 18.91-55 28.51-79.41 20.58zM187.64 842l13.41-6.41c20.47-10.68 51.31-9.46 70-3.78L299.36 843l-12 9.23c-19 14.92-60.06 15.07-82 1.71zM76 701.47l14.78-1.59c22.85-3.28 51.53 8.11 67.27 19.67l23 20-14.37 4.73c-22.94 7.72-61.68-5.75-77.96-25.65zm46 70.73l14.46-3.44c22.26-6.11 52.15 1.6 69.21 11.1L231 796.8l-13.66 6.5c-21.77 10.55-61.88 2-80.53-15.67zM16.16 425.41l12.93 7.32C49.57 443.4 66.23 469.38 72.27 488l7 29.64-14.44-4.54c-23.11-7.1-46.7-40.66-48.33-66.32zm12.27-94.65l12.22 8.45c19.44 12.47 33.69 39.85 38 58.88L83 428.24l-14-5.82c-22.4-9.12-42.89-44.64-42.2-70.35zm44.22-89.21l8.84 12c14.36 18.07 19 48.59 17 68l-5.69 29.9-11.34-10c-18.25-15.88-26.15-56.12-17.2-80.22zm51.01-77.91l6.79 13.23c11.25 20.16 10.9 51 5.75 69.86l-10.41 28.63-9.57-11.73c-15.45-18.61-16.75-59.6-4-81.94zm64.66-63.34l4.4 14.2c7.6 21.8 1.93 52.14-6.39 69.8l-15.2 26.4-7.4-13.2c-12-21-6.21-61.6 10.19-81.4zm79.9-58.94l.6 14.86c1.75 23-11.53 50.88-24.12 65.81l-21.47 21.61-3.76-14.64c-6.2-23.38 9.84-61.13 30.77-76zM359.11-.38l-1.78 14.76c-2 23-19.53 48.38-34.34 61.1l-24.65 17.9L297 78.31c-2.38-24.07 19.49-58.77 42.55-70.14zm109.59 22.9l-9 11.82c-13.36 18.82-41.38 31.78-60.59 35.23l-30.33 2.91 6.47-13.68c10.17-21.95 46.62-40.75 72.26-38.86zM30.51 613.65l14.85.69c23.09.26 49.69 15.91 63.47 29.74l19.66 23.27-14.93 2.47c-23.83 4.15-60-15.1-73.09-37.26zm64.03-17.19l-14-5c-22-7-42.9-29.7-52.05-46.94l-12-28 15 2c24 3 53 32 59.06 56.94zm312.79 196.22l14.14 4.58c22.2 6.34 43.73 28.45 53.37 45.43l12.83 27.63-15.05-1.55c-24.08-2.29-53.93-30.41-60.67-55.22zM351 770.05l13.08 7.06c20.68 10.26 37.85 35.9 44.27 54.35L416 861l-14.52-4.25c-23.27-6.61-47.53-39.67-49.67-65.29zM297.9 736l11.19 9.79c17.9 14.58 29 43.4 31.12 62.8l.89 30.41-13.22-7.36c-21.23-11.6-37.56-49.22-34-74.68zm-89.19-100.06l7.88 12.6c12.92 19.13 15.18 49.91 11.65 69.12l-8 29.4-10.53-10.87c-17-17.23-21.73-58-10.94-81.3zm42 56.42l9.63 11.33c15.55 17.06 22.26 47.19 21.55 66.7l-3.6 30.25-12-9.23c-19.29-14.59-29.92-54.21-22.62-78.86zM177.49 575l5.06 14c8.62 21.42 4.38 52-3.1 70l-13.94 27-8-12.83c-13-20.41-9.1-61.24 6.35-81.79zm-50.88 33.31l-1.07-14.83c-2.46-23 10-51.21 22.06-66.53l20.79-22.26 4.22 14.53c6.92 23.18-7.93 61.4-28.4 77zm-16.09-71.89l.73-14.85c.32-23.08 16-49.64 29.91-63.39l23.32-19.6 2.43 14.94c4.09 23.84-15.26 60-37.45 73zm-7.46-81.55l3.35-14.49c4.41-22.66 24.58-46 40.67-57.09l26.42-15.16-.25 15.13c-.2 24.19-25.65 56.35-49.79 65.2zm9.77-73.81l6.76-13.25c9.76-20.92 35-38.7 53.27-45.55l29.31-8.32-3.91 14.62c-6 23.42-38.52 48.47-64.09 51.22zm24.25-76.51l9.24-11.65c13.7-18.57 42-31 61.23-34.1l30.37-2.35L231.2 270c-10.56 21.76-47.35 39.88-72.95 37.51zM355.19 85.88L370 84.45c22.89-3 51.44 8.7 67.05 20.43l22.77 20.24-14.43 4.57c-23 7.49-61.58-6.43-77.64-26.5zm-68.62 39.43l14.32-4c22-7 52.17-.42 69.59 8.42l25.95 15.95-13.41 7c-21.34 11.39-61.75 4.41-81.07-12.55zM217 180.74l12.54-8c19-13.07 49.79-15.59 69-12.21l29.46 7.73-10.79 10.61c-17.1 17.11-57.79 22.21-81.21 11.6zm-40.44 60.61l10.57-10.46c15.83-16.8 45.36-25.77 64.87-26.54l30.44 1.3-8.3 12.66c-13.09 20.33-51.78 33.93-76.91 28.52z" transform="translate(-15.65 4.24)" id="Leafs_left" stroke="#000" stroke-miterlimit="10"/><g id="Stebel" stroke="#000" stroke-miterlimit="10"><path d="M511.8 886.67c1.49-2.12 48.27 16.57 77.54 61.39 20 30.66 25.36 63.61 23.22 64.44s-9.84-27.24-32.67-59.57c-32.35-45.82-69.46-64.32-68.09-66.26z" transform="translate(-15.65 4.24)"/><path d="M420.5 1013.5c-2.42-.94 4.51-50.84 41-90 25-26.8 55.68-39.88 57-38s-24.09 16.09-50 46c-36.73 42.4-45.79 82.86-48 82z" transform="translate(-15.65 4.24)"/><path d="M298.5 108.5c-1.81-1.5-209.66 133.5-216 344-6 200 170.79 440.7 430 441 258.14.3 430.68-238 431-429 .39-230.43-249.85-383.14-250-383s248.7 161.61 247 380c-1.35 173.65-161.42 423.35-425 424-262.73.65-424-246.65-427-419-3.5-203.14 211.88-356.42 210-358z" transform="translate(-15.65 4.24)"/></g></symbol></svg>